<?xml version="1.0" encoding="UTF-8"?>
<svg xmlns="http://www.w3.org/2000/svg" xmlns:xlink="http://www.w3.org/1999/xlink" width="800" height="600" viewBox="0 0 800 600">
  <defs>
    <clipPath id="plotClip">
      <rect x="0" y="0" width="800" height="600"/>
    </clipPath>

    <!-- Point marker definitions (matching C Gnuplot) -->
    <circle id='gpDot' r='0.5' stroke-width='0.5' stroke='currentColor'/>
    <path id='gpPt0' stroke-width='0.222' stroke='currentColor' d='M-1,0 h2 M0,-1 v2'/>
    <path id='gpPt1' stroke-width='0.222' stroke='currentColor' d='M-1,-1 L1,1 M1,-1 L-1,1'/>
    <path id='gpPt2' stroke-width='0.222' stroke='currentColor' d='M-1,0 L1,0 M0,-1 L0,1 M-1,-1 L1,1 M-1,1 L1,-1'/>
    <rect id='gpPt3' stroke-width='0.222' stroke='currentColor' x='-1' y='-1' width='2' height='2'/>
    <rect id='gpPt4' stroke-width='0.222' stroke='currentColor' fill='currentColor' x='-1' y='-1' width='2' height='2'/>
    <circle id='gpPt5' stroke-width='0.222' stroke='currentColor' cx='0' cy='0' r='1'/>
    <use xlink:href='#gpPt5' id='gpPt6' fill='currentColor' stroke='none'/>
    <path id='gpPt7' stroke-width='0.222' stroke='currentColor' d='M0,-1.33 L-1.33,0.67 L1.33,0.67 z'/>
    <use xlink:href='#gpPt7' id='gpPt8' fill='currentColor' stroke='none'/>
    <use xlink:href='#gpPt7' id='gpPt9' stroke='currentColor' transform='rotate(180)'/>
    <use xlink:href='#gpPt9' id='gpPt10' fill='currentColor' stroke='none'/>
    <use xlink:href='#gpPt3' id='gpPt11' stroke='currentColor' transform='rotate(45)'/>
    <use xlink:href='#gpPt11' id='gpPt12' fill='currentColor' stroke='none'/>
    <path id='gpPt13' stroke-width='0.222' stroke='currentColor' d='M0,1.330 L1.265,0.411 L0.782,-1.067 L-0.782,-1.076 L-1.265,0.411 z'/>
    <use xlink:href='#gpPt13' id='gpPt14' fill='currentColor' stroke='none'/>
  </defs>
  <rect width="800" height="600" fill="#FFFFFF"/>
  <text x="400" y="25" font-size="20" text-anchor="middle">Simple Plots</text>
  <line x1="54" y1="564.00" x2="775" y2="564.00" stroke="#000" stroke-width="1"/>
  <line x1="54.00" y1="564.00" x2="54.00" y2="570.00" stroke="#000" stroke-width="1"/>
  <line x1="54.00" y1="66.00" x2="54.00" y2="72.00" stroke="#000" stroke-width="1"/>
  <text x="54.00" y="582.00" text-anchor="middle" font-size="12">-3</text>
  <line x1="144.13" y1="564.00" x2="144.13" y2="570.00" stroke="#000" stroke-width="1"/>
  <line x1="144.13" y1="66.00" x2="144.13" y2="72.00" stroke="#000" stroke-width="1"/>
  <text x="144.13" y="582.00" text-anchor="middle" font-size="12">-2</text>
  <line x1="234.25" y1="564.00" x2="234.25" y2="570.00" stroke="#000" stroke-width="1"/>
  <line x1="234.25" y1="66.00" x2="234.25" y2="72.00" stroke="#000" stroke-width="1"/>
  <text x="234.25" y="582.00" text-anchor="middle" font-size="12">-1</text>
  <line x1="324.38" y1="564.00" x2="324.38" y2="570.00" stroke="#000" stroke-width="1"/>
  <line x1="324.38" y1="66.00" x2="324.38" y2="72.00" stroke="#000" stroke-width="1"/>
  <text x="324.38" y="582.00" text-anchor="middle" font-size="12">0</text>
  <line x1="414.50" y1="564.00" x2="414.50" y2="570.00" stroke="#000" stroke-width="1"/>
  <line x1="414.50" y1="66.00" x2="414.50" y2="72.00" stroke="#000" stroke-width="1"/>
  <text x="414.50" y="582.00" text-anchor="middle" font-size="12">1</text>
  <line x1="504.63" y1="564.00" x2="504.63" y2="570.00" stroke="#000" stroke-width="1"/>
  <line x1="504.63" y1="66.00" x2="504.63" y2="72.00" stroke="#000" stroke-width="1"/>
  <text x="504.63" y="582.00" text-anchor="middle" font-size="12">2</text>
  <line x1="594.75" y1="564.00" x2="594.75" y2="570.00" stroke="#000" stroke-width="1"/>
  <line x1="594.75" y1="66.00" x2="594.75" y2="72.00" stroke="#000" stroke-width="1"/>
  <text x="594.75" y="582.00" text-anchor="middle" font-size="12">3</text>
  <line x1="684.88" y1="564.00" x2="684.88" y2="570.00" stroke="#000" stroke-width="1"/>
  <line x1="684.88" y1="66.00" x2="684.88" y2="72.00" stroke="#000" stroke-width="1"/>
  <text x="684.88" y="582.00" text-anchor="middle" font-size="12">4</text>
  <line x1="775.00" y1="564.00" x2="775.00" y2="570.00" stroke="#000" stroke-width="1"/>
  <line x1="775.00" y1="66.00" x2="775.00" y2="72.00" stroke="#000" stroke-width="1"/>
  <text x="775.00" y="582.00" text-anchor="middle" font-size="12">5</text>
  <line x1="54.00" y1="66" x2="54.00" y2="564" stroke="#000" stroke-width="1"/>
  <line x1="54.00" y1="562.11" x2="48.00" y2="562.11" stroke="#000" stroke-width="1"/>
  <line x1="775.00" y1="562.11" x2="769.00" y2="562.11" stroke="#000" stroke-width="1"/>
  <text x="44.00" y="566.11" text-anchor="end" font-size="12">-1.5</text>
  <line x1="54.00" y1="508.05" x2="48.00" y2="508.05" stroke="#000" stroke-width="1"/>
  <line x1="775.00" y1="508.05" x2="769.00" y2="508.05" stroke="#000" stroke-width="1"/>
  <text x="44.00" y="512.05" text-anchor="end" font-size="12">-1</text>
  <line x1="54.00" y1="453.98" x2="48.00" y2="453.98" stroke="#000" stroke-width="1"/>
  <line x1="775.00" y1="453.98" x2="769.00" y2="453.98" stroke="#000" stroke-width="1"/>
  <text x="44.00" y="457.98" text-anchor="end" font-size="12">-0.5</text>
  <line x1="54.00" y1="399.92" x2="48.00" y2="399.92" stroke="#000" stroke-width="1"/>
  <line x1="775.00" y1="399.92" x2="769.00" y2="399.92" stroke="#000" stroke-width="1"/>
  <text x="44.00" y="403.92" text-anchor="end" font-size="12">0</text>
  <line x1="54.00" y1="345.86" x2="48.00" y2="345.86" stroke="#000" stroke-width="1"/>
  <line x1="775.00" y1="345.86" x2="769.00" y2="345.86" stroke="#000" stroke-width="1"/>
  <text x="44.00" y="349.86" text-anchor="end" font-size="12">0.5</text>
  <line x1="54.00" y1="291.80" x2="48.00" y2="291.80" stroke="#000" stroke-width="1"/>
  <line x1="775.00" y1="291.80" x2="769.00" y2="291.80" stroke="#000" stroke-width="1"/>
  <text x="44.00" y="295.80" text-anchor="end" font-size="12">1</text>
  <line x1="54.00" y1="237.73" x2="48.00" y2="237.73" stroke="#000" stroke-width="1"/>
  <line x1="775.00" y1="237.73" x2="769.00" y2="237.73" stroke="#000" stroke-width="1"/>
  <text x="44.00" y="241.73" text-anchor="end" font-size="12">1.5</text>
  <line x1="54.00" y1="183.67" x2="48.00" y2="183.67" stroke="#000" stroke-width="1"/>
  <line x1="775.00" y1="183.67" x2="769.00" y2="183.67" stroke="#000" stroke-width="1"/>
  <text x="44.00" y="187.67" text-anchor="end" font-size="12">2</text>
  <line x1="54.00" y1="129.61" x2="48.00" y2="129.61" stroke="#000" stroke-width="1"/>
  <line x1="775.00" y1="129.61" x2="769.00" y2="129.61" stroke="#000" stroke-width="1"/>
  <text x="44.00" y="133.61" text-anchor="end" font-size="12">2.5</text>
  <line x1="54.00" y1="75.54" x2="48.00" y2="75.54" stroke="#000" stroke-width="1"/>
  <line x1="775.00" y1="75.54" x2="769.00" y2="75.54" stroke="#000" stroke-width="1"/>
  <text x="44.00" y="79.54" text-anchor="end" font-size="12">3</text>
  <polyline points="235.16 554.42 238.78 535.34 242.40 523.42 246.03 513.87 249.65 505.62 253.27 498.22 256.89 491.41 260.52 485.06 264.14 479.07 267.76 473.36 271.39 467.88 275.01 462.60 278.63 457.48 282.26 452.50 285.88 447.64 289.50 442.88 293.13 438.21 296.75 433.61 300.37 429.07 303.99 424.59 307.62 420.14 311.24 415.74 314.86 411.35 318.49 406.99 322.11 402.64 325.73 398.29 329.36 393.94 332.98 389.58 336.60 385.21 340.23 380.81 343.85 376.37 347.47 371.90 351.10 367.38 354.72 362.79 358.34 358.14 361.96 353.40 365.59 348.57 369.21 343.62 372.83 338.54 376.46 333.30 380.08 327.88 383.70 322.23 387.33 316.31 390.95 310.06 394.57 303.38 398.20 296.14 401.82 288.13 405.44 278.97 409.07 267.82 412.69 251.79" fill="none" stroke="#9400D3" stroke-width="1.0" stroke-linecap="round" stroke-linejoin="round" clip-path="url(#plotClip)"/>
  <polyline points="235.16 75.58 238.78 94.66 242.40 106.58 246.03 116.13 249.65 124.38 253.27 131.78 256.89 138.59 260.52 144.94 264.14 150.93 267.76 156.64 271.39 162.12 275.01 167.40 278.63 172.52 282.26 177.50 285.88 182.36 289.50 187.12 293.13 191.79 296.75 196.39 300.37 200.93 303.99 205.41 307.62 209.86 311.24 214.26 314.86 218.65 318.49 223.01 322.11 227.36 325.73 231.71 329.36 236.06 332.98 240.42 336.60 244.79 340.23 249.19 343.85 253.63 347.47 258.10 351.10 262.62 354.72 267.21 358.34 271.86 361.96 276.60 365.59 281.43 369.21 286.38 372.83 291.46 376.46 296.70 380.08 302.12 383.70 307.77 387.33 313.69 390.95 319.94 394.57 326.62 398.20 333.86 401.82 341.87 405.44 351.03 409.07 362.18 412.69 378.21" fill="none" stroke="#009E73" stroke-width="1.0" stroke-linecap="round" stroke-linejoin="round" clip-path="url(#plotClip)"/>
  <rect x="59" y="71" width="115" height="56" fill="#FFFFFF" stroke="#000000" stroke-width="1"/>
  <text x="119" y="93" font-family="Arial" font-size="12" alignment-baseline="middle" text-anchor="end">asin(x)</text>
  <line x1="129" y1="90" x2="154" y2="90" stroke="#9400D3" stroke-width="2"/>
  <text x="119" y="111" font-family="Arial" font-size="12" alignment-baseline="middle" text-anchor="end">acos(x)</text>
  <line x1="129" y1="108" x2="154" y2="108" stroke="#009E73" stroke-width="2"/>
  <path d="M 54.00 66.00 L 775.00 66.00 L 775.00 564.00 L 54.00 564.00 Z" stroke="#000000" stroke-width="1.0" fill="none"/>
</svg>
