<?xml version="1.0" encoding="UTF-8"?>
<svg xmlns="http://www.w3.org/2000/svg" xmlns:xlink="http://www.w3.org/1999/xlink" width="800" height="600" viewBox="0 0 800 600">
  <defs>
    <clipPath id="plotClip">
      <rect x="0" y="0" width="800" height="600"/>
    </clipPath>

    <!-- Point marker definitions (matching C Gnuplot) -->
    <circle id='gpDot' r='0.5' stroke-width='0.5' stroke='currentColor'/>
    <path id='gpPt0' stroke-width='0.222' stroke='currentColor' d='M-1,0 h2 M0,-1 v2'/>
    <path id='gpPt1' stroke-width='0.222' stroke='currentColor' d='M-1,-1 L1,1 M1,-1 L-1,1'/>
    <path id='gpPt2' stroke-width='0.222' stroke='currentColor' d='M-1,0 L1,0 M0,-1 L0,1 M-1,-1 L1,1 M-1,1 L1,-1'/>
    <rect id='gpPt3' stroke-width='0.222' stroke='currentColor' x='-1' y='-1' width='2' height='2'/>
    <rect id='gpPt4' stroke-width='0.222' stroke='currentColor' fill='currentColor' x='-1' y='-1' width='2' height='2'/>
    <circle id='gpPt5' stroke-width='0.222' stroke='currentColor' cx='0' cy='0' r='1'/>
    <use xlink:href='#gpPt5' id='gpPt6' fill='currentColor' stroke='none'/>
    <path id='gpPt7' stroke-width='0.222' stroke='currentColor' d='M0,-1.33 L-1.33,0.67 L1.33,0.67 z'/>
    <use xlink:href='#gpPt7' id='gpPt8' fill='currentColor' stroke='none'/>
    <use xlink:href='#gpPt7' id='gpPt9' stroke='currentColor' transform='rotate(180)'/>
    <use xlink:href='#gpPt9' id='gpPt10' fill='currentColor' stroke='none'/>
    <use xlink:href='#gpPt3' id='gpPt11' stroke='currentColor' transform='rotate(45)'/>
    <use xlink:href='#gpPt11' id='gpPt12' fill='currentColor' stroke='none'/>
    <path id='gpPt13' stroke-width='0.222' stroke='currentColor' d='M0,1.330 L1.265,0.411 L0.782,-1.067 L-0.782,-1.076 L-1.265,0.411 z'/>
    <use xlink:href='#gpPt13' id='gpPt14' fill='currentColor' stroke='none'/>
  </defs>
  <rect width="800" height="600" fill="#FFFFFF"/>
  <text x="400" y="25" font-size="20" text-anchor="middle">Simple Plots</text>
  <line x1="54" y1="564.00" x2="775" y2="564.00" stroke="#000" stroke-width="1"/>
  <line x1="70.25" y1="564.00" x2="70.25" y2="570.00" stroke="#000" stroke-width="1"/>
  <line x1="70.25" y1="66.00" x2="70.25" y2="72.00" stroke="#000" stroke-width="1"/>
  <text x="70.25" y="582.00" text-anchor="middle" font-size="12">-15</text>
  <line x1="185.00" y1="564.00" x2="185.00" y2="570.00" stroke="#000" stroke-width="1"/>
  <line x1="185.00" y1="66.00" x2="185.00" y2="72.00" stroke="#000" stroke-width="1"/>
  <text x="185.00" y="582.00" text-anchor="middle" font-size="12">-10</text>
  <line x1="299.75" y1="564.00" x2="299.75" y2="570.00" stroke="#000" stroke-width="1"/>
  <line x1="299.75" y1="66.00" x2="299.75" y2="72.00" stroke="#000" stroke-width="1"/>
  <text x="299.75" y="582.00" text-anchor="middle" font-size="12">-5</text>
  <line x1="414.50" y1="564.00" x2="414.50" y2="570.00" stroke="#000" stroke-width="1"/>
  <line x1="414.50" y1="66.00" x2="414.50" y2="72.00" stroke="#000" stroke-width="1"/>
  <text x="414.50" y="582.00" text-anchor="middle" font-size="12">0</text>
  <line x1="529.25" y1="564.00" x2="529.25" y2="570.00" stroke="#000" stroke-width="1"/>
  <line x1="529.25" y1="66.00" x2="529.25" y2="72.00" stroke="#000" stroke-width="1"/>
  <text x="529.25" y="582.00" text-anchor="middle" font-size="12">5</text>
  <line x1="644.00" y1="564.00" x2="644.00" y2="570.00" stroke="#000" stroke-width="1"/>
  <line x1="644.00" y1="66.00" x2="644.00" y2="72.00" stroke="#000" stroke-width="1"/>
  <text x="644.00" y="582.00" text-anchor="middle" font-size="12">10</text>
  <line x1="758.75" y1="564.00" x2="758.75" y2="570.00" stroke="#000" stroke-width="1"/>
  <line x1="758.75" y1="66.00" x2="758.75" y2="72.00" stroke="#000" stroke-width="1"/>
  <text x="758.75" y="582.00" text-anchor="middle" font-size="12">15</text>
  <line x1="54.00" y1="66" x2="54.00" y2="564" stroke="#000" stroke-width="1"/>
  <line x1="54.00" y1="514.20" x2="48.00" y2="514.20" stroke="#000" stroke-width="1"/>
  <line x1="775.00" y1="514.20" x2="769.00" y2="514.20" stroke="#000" stroke-width="1"/>
  <text x="44.00" y="518.20" text-anchor="end" font-size="12">-4</text>
  <line x1="54.00" y1="414.60" x2="48.00" y2="414.60" stroke="#000" stroke-width="1"/>
  <line x1="775.00" y1="414.60" x2="769.00" y2="414.60" stroke="#000" stroke-width="1"/>
  <text x="44.00" y="418.60" text-anchor="end" font-size="12">-2</text>
  <line x1="54.00" y1="315.00" x2="48.00" y2="315.00" stroke="#000" stroke-width="1"/>
  <line x1="775.00" y1="315.00" x2="769.00" y2="315.00" stroke="#000" stroke-width="1"/>
  <text x="44.00" y="319.00" text-anchor="end" font-size="12">0</text>
  <line x1="54.00" y1="215.40" x2="48.00" y2="215.40" stroke="#000" stroke-width="1"/>
  <line x1="775.00" y1="215.40" x2="769.00" y2="215.40" stroke="#000" stroke-width="1"/>
  <text x="44.00" y="219.40" text-anchor="end" font-size="12">2</text>
  <line x1="54.00" y1="115.80" x2="48.00" y2="115.80" stroke="#000" stroke-width="1"/>
  <line x1="775.00" y1="115.80" x2="769.00" y2="115.80" stroke="#000" stroke-width="1"/>
  <text x="44.00" y="119.80" text-anchor="end" font-size="12">4</text>
  <polyline points="54.00 315.00 55.81 317.61 57.61 320.25 59.42 322.96 61.23 325.77 63.04 328.74 64.84 331.91 66.65 335.34 68.46 339.13 70.26 343.38 72.07 348.25 73.88 353.95 75.68 360.83 77.49 369.39 79.30 380.50 81.11 395.71 82.91 418.17 84.72 455.23 86.53 529.40 88.33 757.86 90.14 -8117.24 91.95 -85.73 93.75 111.02 95.56 179.33 97.37 214.34 99.18 235.85 100.98 250.56 102.79 261.37 104.60 269.74 106.40 276.48 108.21 282.10 110.02 286.91 111.82 291.12 113.63 294.88 115.44 298.30 117.25 301.46 119.05 304.42 120.86 307.25 122.67 309.97 124.47 312.63 126.28 315.26 128.09 317.90 129.89 320.58 131.70 323.32 133.51 326.19 135.32 329.20 137.12 332.43 138.93 335.94 140.74 339.82 142.54 344.17 144.35 349.18 146.16 355.06 147.96 362.17 149.77 371.05 151.58 382.64 153.39 398.61 155.19 422.40 157.00 462.23 158.81 544.17 160.61 816.80 162.42 -2533.91 164.23 -55.76 166.04 117.96 167.84 181.95 169.65 215.53 171.46 236.44 173.26 250.85 175.07 261.51 176.88 269.80 178.68 276.51 180.49 282.11 182.30 286.92 184.11 291.14 185.91 294.91 187.72 298.35 189.53 301.54 191.33 304.54 193.14 307.39 194.95 310.16 196.75 312.86 198.56 315.54 200.37 318.22 202.18 320.96 203.98 323.77 205.79 326.70 207.60 329.80 209.40 333.12 211.21 336.74 213.02 340.74 214.82 345.26 216.63 350.45 218.44 356.58 220.25 364.01 222.05 373.34 223.86 385.56 225.67 402.52 227.47 428.02 229.28 471.40 231.09 563.31 232.89 897.90 234.70 -1437.01 236.51 -34.62 238.32 122.00 240.12 182.81 241.93 215.44 243.74 236.00 245.54 250.30 247.35 260.93 249.16 269.24 250.96 275.99 252.77 281.65 254.58 286.51 256.39 290.80 258.19 294.64 260.00 298.15 261.81 301.41 263.61 304.48 265.42 307.42 267.23 310.26 269.04 313.06 270.84 315.83 272.65 318.63 274.46 321.47 276.26 324.41 278.07 327.49 279.88 330.75 281.68 334.25 283.49 338.08 285.30 342.34 287.11 347.15 288.91 352.71 290.72 359.29 292.53 367.30 294.33 377.41 296.14 390.74 297.95 409.37 299.75 437.68 301.56 486.64 303.37 593.80 305.18 1027.83 306.98 -1012.93 308.79 -28.95 310.60 118.41 312.40 178.37 314.21 211.22 316.02 232.17 317.82 246.85 319.63 257.84 321.44 266.46 323.25 273.50 325.05 279.43 326.86 284.55 328.67 289.07 330.47 293.15 332.28 296.90 334.09 300.40 335.89 303.73 337.70 306.92 339.51 310.05 341.32 313.14 343.12 316.25 344.93 319.40 346.74 322.65 348.54 326.05 350.35 329.65 352.16 333.51 353.96 337.72 355.77 342.39 357.58 347.64 359.39 353.67 361.19 360.74 363.00 369.23 364.81 379.72 366.61 393.16 368.42 411.16 370.23 436.74 372.04 476.35 373.84 546.52 375.65 706.46 377.46 1446.01 379.26 -1099.13 381.07 -133.11 382.88 44.64 384.68 119.55 386.49 160.91 388.30 187.17 390.11 205.33 391.91 218.62 393.72 228.75 395.53 236.69 397.33 243.05 399.14 248.21 400.95 252.42 402.75 255.86 404.56 258.66 406.37 260.90 408.18 262.63 409.98 263.90 411.79 264.74 413.60 265.15 415.40 265.15 417.21 264.74 419.02 263.90 420.82 262.63 422.63 260.90 424.44 258.66 426.25 255.86 428.05 252.42 429.86 248.21 431.67 243.05 433.47 236.69 435.28 228.75 437.09 218.62 438.89 205.33 440.70 187.17 442.51 160.91 444.32 119.55 446.12 44.64 447.93 -133.11 449.74 -1099.13 451.54 1446.01 453.35 706.46 455.16 546.52 456.96 476.35 458.77 436.74 460.58 411.16 462.39 393.16 464.19 379.72 466.00 369.23 467.81 360.74 469.61 353.67 471.42 347.64 473.23 342.39 475.04 337.72 476.84 333.51 478.65 329.65 480.46 326.05 482.26 322.65 484.07 319.40 485.88 316.25 487.68 313.14 489.49 310.05 491.30 306.92 493.11 303.73 494.91 300.40 496.72 296.90 498.53 293.15 500.33 289.07 502.14 284.55 503.95 279.43 505.75 273.50 507.56 266.46 509.37 257.84 511.18 246.85 512.98 232.17 514.79 211.22 516.60 178.37 518.40 118.41 520.21 -28.95 522.02 -1012.93 523.82 1027.83 525.63 593.80 527.44 486.64 529.25 437.68 531.05 409.37 532.86 390.74 534.67 377.41 536.47 367.30 538.28 359.29 540.09 352.71 541.89 347.15 543.70 342.34 545.51 338.08 547.32 334.25 549.12 330.75 550.93 327.49 552.74 324.41 554.54 321.47 556.35 318.63 558.16 315.83 559.96 313.06 561.77 310.26 563.58 307.42 565.39 304.48 567.19 301.41 569.00 298.15 570.81 294.64 572.61 290.80 574.42 286.51 576.23 281.65 578.04 275.99 579.84 269.24 581.65 260.93 583.46 250.30 585.26 236.00 587.07 215.44 588.88 182.81 590.68 122.00 592.49 -34.62 594.30 -1437.01 596.11 897.90 597.91 563.31 599.72 471.40 601.53 428.02 603.33 402.52 605.14 385.56 606.95 373.34 608.75 364.01 610.56 356.58 612.37 350.45 614.18 345.26 615.98 340.74 617.79 336.74 619.60 333.12 621.40 329.80 623.21 326.70 625.02 323.77 626.82 320.96 628.63 318.22 630.44 315.54 632.25 312.86 634.05 310.16 635.86 307.39 637.67 304.54 639.47 301.54 641.28 298.35 643.09 294.91 644.89 291.14 646.70 286.92 648.51 282.11 650.32 276.51 652.12 269.80 653.93 261.51 655.74 250.85 657.54 236.44 659.35 215.53 661.16 181.95 662.96 117.96 664.77 -55.76 666.58 -2533.91 668.39 816.80 670.19 544.17 672.00 462.23 673.81 422.40 675.61 398.61 677.42 382.64 679.23 371.05 681.04 362.17 682.84 355.06 684.65 349.18 686.46 344.17 688.26 339.82 690.07 335.94 691.88 332.43 693.68 329.20 695.49 326.19 697.30 323.32 699.11 320.58 700.91 317.90 702.72 315.26 704.53 312.63 706.33 309.97 708.14 307.25 709.95 304.42 711.75 301.46 713.56 298.30 715.37 294.88 717.18 291.12 718.98 286.91 720.79 282.10 722.60 276.48 724.40 269.74 726.21 261.37 728.02 250.56 729.82 235.85 731.63 214.34 733.44 179.33 735.25 111.02 737.05 -85.73 738.86 -8117.24 740.67 757.86 742.47 529.40 744.28 455.23 746.09 418.17 747.89 395.71 749.70 380.50 751.51 369.39 753.32 360.83 755.12 353.95 756.93 348.25 758.74 343.38 760.54 339.13 762.35 335.34 764.16 331.91 765.96 328.74 767.77 325.77 769.58 322.96 771.39 320.25 773.19 317.61 775.00 315.00" fill="none" stroke="#9400D3" stroke-width="1.0" stroke-linecap="round" stroke-linejoin="round" clip-path="url(#plotClip)"/>
  <polyline points="54.00 318.17 55.81 318.19 57.61 318.20 59.42 318.22 61.23 318.24 63.04 318.25 64.84 318.27 66.65 318.29 68.46 318.30 70.26 318.32 72.07 318.34 73.88 318.36 75.68 318.37 77.49 318.39 79.30 318.41 81.11 318.43 82.91 318.45 84.72 318.47 86.53 318.48 88.33 318.50 90.14 318.52 91.95 318.54 93.75 318.56 95.56 318.58 97.37 318.60 99.18 318.62 100.98 318.65 102.79 318.67 104.60 318.69 106.40 318.71 108.21 318.73 110.02 318.75 111.82 318.78 113.63 318.80 115.44 318.82 117.25 318.84 119.05 318.87 120.86 318.89 122.67 318.92 124.47 318.94 126.28 318.97 128.09 318.99 129.89 319.02 131.70 319.04 133.51 319.07 135.32 319.09 137.12 319.12 138.93 319.15 140.74 319.17 142.54 319.20 144.35 319.23 146.16 319.26 147.96 319.29 149.77 319.32 151.58 319.35 153.39 319.38 155.19 319.41 157.00 319.44 158.81 319.47 160.61 319.50 162.42 319.53 164.23 319.57 166.04 319.60 167.84 319.63 169.65 319.67 171.46 319.70 173.26 319.74 175.07 319.77 176.88 319.81 178.68 319.85 180.49 319.88 182.30 319.92 184.11 319.96 185.91 320.00 187.72 320.04 189.53 320.08 191.33 320.12 193.14 320.16 194.95 320.21 196.75 320.25 198.56 320.29 200.37 320.34 202.18 320.38 203.98 320.43 205.79 320.48 207.60 320.52 209.40 320.57 211.21 320.62 213.02 320.67 214.82 320.72 216.63 320.78 218.44 320.83 220.25 320.88 222.05 320.94 223.86 321.00 225.67 321.05 227.47 321.11 229.28 321.17 231.09 321.23 232.89 321.29 234.70 321.36 236.51 321.42 238.32 321.49 240.12 321.55 241.93 321.62 243.74 321.69 245.54 321.76 247.35 321.84 249.16 321.91 250.96 321.99 252.77 322.07 254.58 322.15 256.39 322.23 258.19 322.31 260.00 322.40 261.81 322.49 263.61 322.57 265.42 322.67 267.23 322.76 269.04 322.86 270.84 322.96 272.65 323.06 274.46 323.16 276.26 323.27 278.07 323.38 279.88 323.49 281.68 323.61 283.49 323.72 285.30 323.85 287.11 323.97 288.91 324.10 290.72 324.23 292.53 324.37 294.33 324.51 296.14 324.66 297.95 324.81 299.75 324.96 301.56 325.12 303.37 325.28 305.18 325.45 306.98 325.63 308.79 325.81 310.60 326.00 312.40 326.19 314.21 326.40 316.02 326.61 317.82 326.82 319.63 327.05 321.44 327.28 323.25 327.52 325.05 327.78 326.86 328.04 328.67 328.32 330.47 328.60 332.28 328.90 334.09 329.21 335.89 329.54 337.70 329.88 339.51 330.24 341.32 330.62 343.12 331.01 344.93 331.43 346.74 331.87 348.54 332.33 350.35 332.82 352.16 333.33 353.96 333.88 355.77 334.46 357.58 335.08 359.39 335.74 361.19 336.44 363.00 337.19 364.81 338.00 366.61 338.87 368.42 339.80 370.23 340.82 372.04 341.91 373.84 343.11 375.65 344.42 377.46 345.85 379.26 347.44 381.07 349.19 382.88 351.14 384.68 353.33 386.49 355.81 388.30 358.62 390.11 361.85 391.91 365.60 393.72 370.00 395.53 375.24 397.33 381.58 399.14 389.41 400.95 399.33 402.75 412.31 404.56 430.00 406.37 455.55 408.18 495.71 409.98 568.00 411.79 736.66 413.60 1579.98 415.40 -949.98 417.21 -106.66 419.02 62.00 420.82 134.29 422.63 174.45 424.44 200.00 426.25 217.69 428.05 230.67 429.86 240.59 431.67 248.42 433.47 254.76 435.28 260.00 437.09 264.40 438.89 268.15 440.70 271.38 442.51 274.19 444.32 276.67 446.12 278.86 447.93 280.81 449.74 282.56 451.54 284.15 453.35 285.58 455.16 286.89 456.96 288.09 458.77 289.18 460.58 290.20 462.39 291.13 464.19 292.00 466.00 292.81 467.81 293.56 469.61 294.26 471.42 294.92 473.23 295.54 475.04 296.12 476.84 296.67 478.65 297.18 480.46 297.67 482.26 298.13 484.07 298.57 485.88 298.99 487.68 299.38 489.49 299.76 491.30 300.12 493.11 300.46 494.91 300.79 496.72 301.10 498.53 301.40 500.33 301.68 502.14 301.96 503.95 302.22 505.75 302.48 507.56 302.72 509.37 302.95 511.18 303.18 512.98 303.39 514.79 303.60 516.60 303.81 518.40 304.00 520.21 304.19 522.02 304.37 523.82 304.55 525.63 304.72 527.44 304.88 529.25 305.04 531.05 305.19 532.86 305.34 534.67 305.49 536.47 305.63 538.28 305.77 540.09 305.90 541.89 306.03 543.70 306.15 545.51 306.28 547.32 306.39 549.12 306.51 550.93 306.62 552.74 306.73 554.54 306.84 556.35 306.94 558.16 307.04 559.96 307.14 561.77 307.24 563.58 307.33 565.39 307.43 567.19 307.51 569.00 307.60 570.81 307.69 572.61 307.77 574.42 307.85 576.23 307.93 578.04 308.01 579.84 308.09 581.65 308.16 583.46 308.24 585.26 308.31 587.07 308.38 588.88 308.45 590.68 308.51 592.49 308.58 594.30 308.64 596.11 308.71 597.91 308.77 599.72 308.83 601.53 308.89 603.33 308.95 605.14 309.00 606.95 309.06 608.75 309.12 610.56 309.17 612.37 309.22 614.18 309.28 615.98 309.33 617.79 309.38 619.60 309.43 621.40 309.48 623.21 309.52 625.02 309.57 626.82 309.62 628.63 309.66 630.44 309.71 632.25 309.75 634.05 309.79 635.86 309.84 637.67 309.88 639.47 309.92 641.28 309.96 643.09 310.00 644.89 310.04 646.70 310.08 648.51 310.12 650.32 310.15 652.12 310.19 653.93 310.23 655.74 310.26 657.54 310.30 659.35 310.33 661.16 310.37 662.96 310.40 664.77 310.43 666.58 310.47 668.39 310.50 670.19 310.53 672.00 310.56 673.81 310.59 675.61 310.62 677.42 310.65 679.23 310.68 681.04 310.71 682.84 310.74 684.65 310.77 686.46 310.80 688.26 310.83 690.07 310.85 691.88 310.88 693.68 310.91 695.49 310.93 697.30 310.96 699.11 310.98 700.91 311.01 702.72 311.03 704.53 311.06 706.33 311.08 708.14 311.11 709.95 311.13 711.75 311.16 713.56 311.18 715.37 311.20 717.18 311.22 718.98 311.25 720.79 311.27 722.60 311.29 724.40 311.31 726.21 311.33 728.02 311.35 729.82 311.38 731.63 311.40 733.44 311.42 735.25 311.44 737.05 311.46 738.86 311.48 740.67 311.50 742.47 311.52 744.28 311.53 746.09 311.55 747.89 311.57 749.70 311.59 751.51 311.61 753.32 311.63 755.12 311.64 756.93 311.66 758.74 311.68 760.54 311.70 762.35 311.71 764.16 311.73 765.96 311.75 767.77 311.76 769.58 311.78 771.39 311.80 773.19 311.81 775.00 311.83" fill="none" stroke="#009E73" stroke-width="1.0" stroke-linecap="round" stroke-linejoin="round" clip-path="url(#plotClip)"/>
  <rect x="215" y="521" width="398" height="38" fill="#FFFFFF" stroke="#000000" stroke-width="1"/>
  <text x="369" y="543" font-family="Arial" font-size="12" alignment-baseline="middle" text-anchor="end">real(tan(x)/atan(x))</text>
  <line x1="379" y1="540" x2="404" y2="540" stroke="#9400D3" stroke-width="2"/>
  <text x="558" y="543" font-family="Arial" font-size="12" alignment-baseline="middle" text-anchor="end">1/x</text>
  <line x1="568" y1="540" x2="593" y2="540" stroke="#009E73" stroke-width="2"/>
  <path d="M 54.00 66.00 L 775.00 66.00 L 775.00 564.00 L 54.00 564.00 Z" stroke="#000000" stroke-width="1.0" fill="none"/>
</svg>
