<?xml version="1.0" encoding="UTF-8"?>
<svg xmlns="http://www.w3.org/2000/svg" xmlns:xlink="http://www.w3.org/1999/xlink" width="800" height="600" viewBox="0 0 800 600">
  <defs>
    <clipPath id="plotClip">
      <rect x="0" y="0" width="800" height="600"/>
    </clipPath>

    <!-- Point marker definitions (matching C Gnuplot) -->
    <circle id='gpDot' r='0.5' stroke-width='0.5' stroke='currentColor'/>
    <path id='gpPt0' stroke-width='0.222' stroke='currentColor' d='M-1,0 h2 M0,-1 v2'/>
    <path id='gpPt1' stroke-width='0.222' stroke='currentColor' d='M-1,-1 L1,1 M1,-1 L-1,1'/>
    <path id='gpPt2' stroke-width='0.222' stroke='currentColor' d='M-1,0 L1,0 M0,-1 L0,1 M-1,-1 L1,1 M-1,1 L1,-1'/>
    <rect id='gpPt3' stroke-width='0.222' stroke='currentColor' x='-1' y='-1' width='2' height='2'/>
    <rect id='gpPt4' stroke-width='0.222' stroke='currentColor' fill='currentColor' x='-1' y='-1' width='2' height='2'/>
    <circle id='gpPt5' stroke-width='0.222' stroke='currentColor' cx='0' cy='0' r='1'/>
    <use xlink:href='#gpPt5' id='gpPt6' fill='currentColor' stroke='none'/>
    <path id='gpPt7' stroke-width='0.222' stroke='currentColor' d='M0,-1.33 L-1.33,0.67 L1.33,0.67 z'/>
    <use xlink:href='#gpPt7' id='gpPt8' fill='currentColor' stroke='none'/>
    <use xlink:href='#gpPt7' id='gpPt9' stroke='currentColor' transform='rotate(180)'/>
    <use xlink:href='#gpPt9' id='gpPt10' fill='currentColor' stroke='none'/>
    <use xlink:href='#gpPt3' id='gpPt11' stroke='currentColor' transform='rotate(45)'/>
    <use xlink:href='#gpPt11' id='gpPt12' fill='currentColor' stroke='none'/>
    <path id='gpPt13' stroke-width='0.222' stroke='currentColor' d='M0,1.330 L1.265,0.411 L0.782,-1.067 L-0.782,-1.076 L-1.265,0.411 z'/>
    <use xlink:href='#gpPt13' id='gpPt14' fill='currentColor' stroke='none'/>
  </defs>
  <rect width="800" height="600" fill="#FFFFFF"/>
  <text x="400" y="25" font-size="20" text-anchor="middle">Simple Plots</text>
  <line x1="54" y1="564.00" x2="775" y2="564.00" stroke="#000" stroke-width="1"/>
  <line x1="54.00" y1="564.00" x2="54.00" y2="570.00" stroke="#000" stroke-width="1"/>
  <line x1="54.00" y1="66.00" x2="54.00" y2="72.00" stroke="#000" stroke-width="1"/>
  <text x="54.00" y="582.00" text-anchor="middle" font-size="12">-30</text>
  <line x1="198.20" y1="564.00" x2="198.20" y2="570.00" stroke="#000" stroke-width="1"/>
  <line x1="198.20" y1="66.00" x2="198.20" y2="72.00" stroke="#000" stroke-width="1"/>
  <text x="198.20" y="582.00" text-anchor="middle" font-size="12">-20</text>
  <line x1="342.40" y1="564.00" x2="342.40" y2="570.00" stroke="#000" stroke-width="1"/>
  <line x1="342.40" y1="66.00" x2="342.40" y2="72.00" stroke="#000" stroke-width="1"/>
  <text x="342.40" y="582.00" text-anchor="middle" font-size="12">-10</text>
  <line x1="486.60" y1="564.00" x2="486.60" y2="570.00" stroke="#000" stroke-width="1"/>
  <line x1="486.60" y1="66.00" x2="486.60" y2="72.00" stroke="#000" stroke-width="1"/>
  <text x="486.60" y="582.00" text-anchor="middle" font-size="12">0</text>
  <line x1="630.80" y1="564.00" x2="630.80" y2="570.00" stroke="#000" stroke-width="1"/>
  <line x1="630.80" y1="66.00" x2="630.80" y2="72.00" stroke="#000" stroke-width="1"/>
  <text x="630.80" y="582.00" text-anchor="middle" font-size="12">10</text>
  <line x1="775.00" y1="564.00" x2="775.00" y2="570.00" stroke="#000" stroke-width="1"/>
  <line x1="775.00" y1="66.00" x2="775.00" y2="72.00" stroke="#000" stroke-width="1"/>
  <text x="775.00" y="582.00" text-anchor="middle" font-size="12">20</text>
  <line x1="54.00" y1="66" x2="54.00" y2="564" stroke="#000" stroke-width="1"/>
  <line x1="54.00" y1="549.42" x2="48.00" y2="549.42" stroke="#000" stroke-width="1"/>
  <line x1="775.00" y1="549.42" x2="769.00" y2="549.42" stroke="#000" stroke-width="1"/>
  <text x="44.00" y="553.42" text-anchor="end" font-size="12">-1.5</text>
  <line x1="54.00" y1="470.84" x2="48.00" y2="470.84" stroke="#000" stroke-width="1"/>
  <line x1="775.00" y1="470.84" x2="769.00" y2="470.84" stroke="#000" stroke-width="1"/>
  <text x="44.00" y="474.84" text-anchor="end" font-size="12">-1</text>
  <line x1="54.00" y1="392.27" x2="48.00" y2="392.27" stroke="#000" stroke-width="1"/>
  <line x1="775.00" y1="392.27" x2="769.00" y2="392.27" stroke="#000" stroke-width="1"/>
  <text x="44.00" y="396.27" text-anchor="end" font-size="12">-0.5</text>
  <line x1="54.00" y1="313.69" x2="48.00" y2="313.69" stroke="#000" stroke-width="1"/>
  <line x1="775.00" y1="313.69" x2="769.00" y2="313.69" stroke="#000" stroke-width="1"/>
  <text x="44.00" y="317.69" text-anchor="end" font-size="12">0</text>
  <line x1="54.00" y1="235.11" x2="48.00" y2="235.11" stroke="#000" stroke-width="1"/>
  <line x1="775.00" y1="235.11" x2="769.00" y2="235.11" stroke="#000" stroke-width="1"/>
  <text x="44.00" y="239.11" text-anchor="end" font-size="12">0.5</text>
  <line x1="54.00" y1="156.53" x2="48.00" y2="156.53" stroke="#000" stroke-width="1"/>
  <line x1="775.00" y1="156.53" x2="769.00" y2="156.53" stroke="#000" stroke-width="1"/>
  <text x="44.00" y="160.53" text-anchor="end" font-size="12">1</text>
  <line x1="54.00" y1="77.95" x2="48.00" y2="77.95" stroke="#000" stroke-width="1"/>
  <line x1="775.00" y1="77.95" x2="769.00" y2="77.95" stroke="#000" stroke-width="1"/>
  <text x="44.00" y="81.95" text-anchor="end" font-size="12">1.5</text>
  <polyline points="54.00 303.01 54.90 81.16 55.80 178.42 56.71 461.29 57.61 541.59 58.51 309.14 59.41 82.95 60.32 173.41 61.22 456.36 62.12 543.50 63.02 315.26 63.93 84.89 64.83 168.51 65.73 451.34 66.63 545.25 67.54 321.39 68.44 86.98 69.34 163.70 70.24 446.24 71.15 546.86 72.05 327.50 72.95 89.21 73.85 158.98 74.75 441.04 75.66 548.31 76.56 333.60 77.46 91.59 78.36 154.38 79.27 435.77 80.17 549.61 81.07 339.69 81.97 94.11 82.88 149.87 83.78 430.43 84.68 550.76 85.58 345.76 86.49 96.77 87.39 145.48 88.29 425.00 89.19 551.75 90.10 351.80 91.00 99.57 91.90 141.19 92.80 419.51 93.70 552.58 94.61 357.81 95.51 102.51 96.41 137.03 97.31 413.96 98.22 553.26 99.12 363.80 100.02 105.59 100.92 132.97 101.83 408.34 102.73 553.79 103.63 369.74 104.53 108.80 105.44 129.04 106.34 402.66 107.24 554.16 108.14 375.65 109.05 112.14 109.95 125.23 110.85 396.93 111.75 554.37 112.65 381.51 113.56 115.61 114.46 121.55 115.36 391.15 116.26 554.42 117.17 387.33 118.07 119.20 118.97 117.99 119.87 385.32 120.78 554.32 121.68 393.09 122.58 122.92 123.48 114.56 124.39 379.45 125.29 554.06 126.19 398.80 127.09 126.76 127.99 111.27 128.90 373.54 129.80 553.65 130.70 404.45 131.60 130.72 132.51 108.11 133.41 367.60 134.31 553.08 135.21 410.03 136.12 134.80 137.02 105.08 137.92 361.62 138.82 552.35 139.73 415.55 140.63 138.99 141.53 102.19 142.43 355.62 143.34 551.47 144.24 421.00 145.14 143.30 146.04 99.45 146.94 349.59 147.85 550.43 148.75 426.38 149.65 147.71 150.55 96.84 151.46 343.55 152.36 549.24 153.26 431.68 154.16 152.22 155.07 94.38 155.97 337.48 156.87 547.90 157.77 436.89 158.68 156.84 159.58 92.06 160.48 331.41 161.38 546.40 162.29 442.02 163.19 161.56 164.09 89.89 164.99 325.33 165.89 544.76 166.80 447.07 167.70 166.37 168.60 87.87 169.50 319.25 170.41 542.96 171.31 452.02 172.21 171.27 173.11 86.00 174.02 313.17 174.92 541.02 175.82 456.88 176.72 176.27 177.63 84.28 178.53 307.10 179.43 538.92 180.33 461.63 181.24 181.35 182.14 82.71 183.04 301.04 183.94 536.68 184.84 466.29 185.75 186.51 186.65 81.29 187.55 294.99 188.45 534.30 189.36 470.84 190.26 191.75 191.16 80.03 192.06 288.96 192.97 531.78 193.87 475.29 194.77 197.07 195.67 78.93 196.58 282.95 197.48 529.11 198.38 479.62 199.28 202.46 200.19 77.98 201.09 276.96 201.99 526.30 202.89 483.84 203.79 207.91 204.70 77.18 205.60 271.01 206.50 523.36 207.40 487.95 208.31 213.43 209.21 76.55 210.11 265.09 211.01 520.28 211.92 491.93 212.82 219.01 213.72 76.07 214.62 259.21 215.53 517.07 216.43 495.79 217.33 224.65 218.23 75.74 219.14 253.38 220.04 513.72 220.94 499.53 221.84 230.33 222.74 75.58 223.65 247.59 224.55 510.25 225.45 503.13 226.35 236.07 227.26 75.58 228.16 241.85 229.06 506.65 229.96 506.61 230.87 241.85 231.77 75.73 232.67 236.17 233.57 502.93 234.48 509.96 235.38 247.67 236.28 76.04 237.18 230.54 238.09 499.09 238.99 513.16 239.89 253.53 240.79 76.51 241.69 224.98 242.60 495.12 243.50 516.24 244.40 259.42 245.30 77.14 246.21 219.49 247.11 491.04 248.01 519.17 248.91 265.34 249.82 77.93 250.72 214.07 251.62 486.85 252.52 521.95 253.43 271.28 254.33 78.87 255.23 208.72 256.13 482.55 257.04 524.60 257.94 277.24 258.84 79.98 259.74 203.45 260.64 478.14 261.55 527.09 262.45 283.22 263.35 81.23 264.25 198.27 265.16 473.63 266.06 529.44 266.96 289.20 267.86 82.65 268.77 193.17 269.67 469.02 270.57 531.64 271.47 295.19 272.38 84.21 273.28 188.17 274.18 464.30 275.08 533.68 275.98 301.19 276.89 85.94 277.79 183.26 278.69 459.50 279.59 535.57 280.50 307.18 281.40 87.81 282.30 178.45 283.20 454.60 284.11 537.30 285.01 313.16 285.91 89.84 286.81 173.74 287.72 449.62 288.62 538.87 289.52 319.13 290.42 92.02 291.33 169.14 292.23 444.55 293.13 540.29 294.03 325.08 294.93 94.34 295.84 164.65 296.74 439.41 297.64 541.54 298.54 331.01 299.45 96.82 300.35 160.28 301.25 434.18 302.15 542.63 303.06 336.92 303.96 99.44 304.86 156.03 305.76 428.89 306.67 543.55 307.57 342.79 308.47 102.21 309.37 151.90 310.28 423.53 311.18 544.31 312.08 348.63 312.98 105.12 313.88 147.89 314.79 418.10 315.69 544.90 316.59 354.42 317.49 108.17 318.40 144.02 319.30 412.62 320.20 545.32 321.10 360.17 322.01 111.36 322.91 140.28 323.81 407.08 324.71 545.57 325.62 365.86 326.52 114.70 327.42 136.69 328.32 401.48 329.23 545.65 330.13 371.50 331.03 118.16 331.93 133.24 332.83 395.85 333.74 545.56 334.64 377.07 335.54 121.77 336.44 129.93 337.35 390.17 338.25 545.29 339.15 382.58 340.05 125.50 340.96 126.78 341.86 384.45 342.76 544.84 343.66 388.01 344.57 129.37 345.47 123.79 346.37 378.71 347.27 544.21 348.18 393.36 349.08 133.36 349.98 120.96 350.88 372.93 351.78 543.40 352.69 398.62 353.59 137.48 354.49 118.30 355.39 367.14 356.30 542.41 357.20 403.78 358.10 141.72 359.00 115.81 359.91 361.33 360.81 541.23 361.71 408.84 362.61 146.09 363.52 113.51 364.42 355.52 365.32 539.87 366.22 413.79 367.13 150.58 368.03 111.39 368.93 349.70 369.83 538.32 370.73 418.63 371.64 155.18 372.54 109.47 373.44 343.88 374.34 536.57 375.25 423.33 376.15 159.90 377.05 107.74 377.95 338.08 378.86 534.62 379.76 427.90 380.66 164.73 381.56 106.24 382.47 332.30 383.37 532.47 384.27 432.32 385.17 169.67 386.08 104.95 386.98 326.55 387.88 530.11 388.78 436.57 389.68 174.73 390.59 103.90 391.49 320.83 392.39 527.54 393.29 440.66 394.20 179.89 395.10 103.09 396.00 315.16 396.90 524.75 397.81 444.55 398.71 185.15 399.61 102.55 400.51 309.55 401.42 521.72 402.32 448.23 403.22 190.52 404.12 102.29 405.03 304.02 405.93 518.45 406.83 451.67 407.73 195.99 408.63 102.34 409.54 298.57 410.44 514.92 411.34 454.86 412.24 201.57 413.15 102.72 414.05 293.24 414.95 511.11 415.85 457.76 416.76 207.25 417.66 103.47 418.56 288.03 419.46 507.01 420.37 460.34 421.27 213.03 422.17 104.62 423.07 282.97 423.97 502.57 424.88 462.53 425.78 218.92 426.68 106.25 427.58 278.11 428.49 497.76 429.39 464.29 430.29 224.91 431.19 108.40 432.10 273.47 433.00 492.53 433.90 465.53 434.80 231.02 435.71 111.19 436.61 269.12 437.51 486.82 438.41 466.15 439.32 237.25 440.22 114.72 441.12 265.13 442.02 480.53 442.92 466.01 443.83 243.61 444.73 119.17 445.63 261.59 446.53 473.53 447.44 464.91 448.34 250.12 449.24 124.76 450.14 258.64 451.05 465.65 451.95 462.58 452.85 256.80 453.75 131.84 454.66 256.47 455.56 456.63 456.46 458.62 457.36 263.69 458.27 140.88 459.17 255.37 460.07 446.10 460.97 452.45 461.87 270.82 462.78 152.61 463.68 255.77 464.58 433.50 465.48 443.18 466.39 278.26 467.29 168.10 468.19 258.33 469.09 418.01 470.00 429.50 470.90 286.07 471.80 188.91 472.70 264.04 473.61 398.51 474.51 409.51 475.41 294.25 476.31 217.14 477.22 274.26 478.12 373.73 479.02 381.06 479.92 302.61 480.82 254.55 481.73 290.25 482.63 343.27 483.53 343.25 484.43 310.47 485.34 300.18 486.24 311.80 487.14 309.66 488.04 299.44 488.95 316.53 489.85 347.77 490.75 335.80 491.65 278.54 492.56 257.15 493.46 319.76 494.36 389.20 495.26 358.22 496.17 254.38 497.07 222.08 497.97 320.16 498.87 420.85 499.77 377.13 500.68 237.75 501.58 195.18 502.48 318.45 503.38 443.63 504.29 392.62 505.19 227.10 506.09 174.86 506.99 315.34 507.90 459.78 508.80 405.46 509.70 220.68 510.60 159.31 511.51 311.33 512.41 471.28 513.31 416.38 514.21 217.18 515.12 147.13 516.02 306.73 516.92 479.50 517.82 425.90 518.72 215.74 519.63 137.38 520.53 301.74 521.43 485.36 522.33 434.39 523.24 215.77 524.14 129.40 525.04 296.49 525.94 489.48 526.85 442.10 527.75 216.90 528.65 122.77 529.55 291.05 530.46 492.28 531.36 449.18 532.26 218.85 533.16 117.18 534.07 285.48 534.97 494.05 535.87 455.78 536.77 221.46 537.67 112.44 538.58 279.82 539.48 494.99 540.38 461.95 541.28 224.57 542.19 108.39 543.09 274.10 543.99 495.26 544.89 467.78 545.80 228.11 546.70 104.93 547.60 268.34 548.50 494.95 549.41 473.30 550.31 231.99 551.21 101.96 552.11 262.56 553.02 494.16 553.92 478.54 554.82 236.16 555.72 99.43 556.62 256.78 557.53 492.96 558.43 483.53 559.33 240.58 560.23 97.29 561.14 250.99 562.04 491.38 562.94 488.29 563.84 245.21 564.75 95.51 565.65 245.22 566.55 489.47 567.45 492.83 568.36 250.02 569.26 94.04 570.16 239.48 571.06 487.27 571.96 497.17 572.87 254.99 573.77 92.87 574.67 233.76 575.57 484.79 576.48 501.31 577.38 260.10 578.28 91.98 579.18 228.08 580.09 482.07 580.99 505.27 581.89 265.33 582.79 91.35 583.70 222.45 584.60 479.12 585.50 509.04 586.40 270.68 587.31 90.97 588.21 216.86 589.11 475.96 590.01 512.62 590.91 276.11 591.82 90.82 592.72 211.33 593.62 472.61 594.52 516.04 595.43 281.63 596.33 90.90 597.23 205.85 598.13 469.06 599.04 519.27 599.94 287.22 600.84 91.20 601.74 200.44 602.65 465.35 603.55 522.34 604.45 292.88 605.35 91.70 606.26 195.10 607.16 461.47 608.06 525.23 608.96 298.59 609.86 92.41 610.77 189.83 611.67 457.43 612.57 527.96 613.47 304.35 614.38 93.32 615.28 184.64 616.18 453.25 617.08 530.52 617.99 310.15 618.89 94.42 619.79 179.53 620.69 448.93 621.60 532.90 622.50 315.98 623.40 95.70 624.30 174.51 625.21 444.48 626.11 535.13 627.01 321.84 627.91 97.17 628.81 169.57 629.72 439.90 630.62 537.18 631.52 327.71 632.42 98.82 633.33 164.73 634.23 435.20 635.13 539.07 636.03 333.60 636.94 100.64 637.84 159.98 638.74 430.39 639.64 540.79 640.55 339.50 641.45 102.63 642.35 155.33 643.25 425.47 644.16 542.34 645.06 345.40 645.96 104.79 646.86 150.79 647.76 420.45 648.67 543.73 649.57 351.30 650.47 107.11 651.37 146.35 652.28 415.33 653.18 544.96 654.08 357.19 654.98 109.59 655.89 142.02 656.79 410.13 657.69 546.01 658.59 363.06 659.50 112.23 660.40 137.80 661.30 404.83 662.20 546.90 663.11 368.92 664.01 115.02 664.91 133.69 665.81 399.46 666.71 547.63 667.62 374.75 668.52 117.96 669.42 129.71 670.32 394.01 671.23 548.19 672.13 380.56 673.03 121.05 673.93 125.84 674.84 388.49 675.74 548.59 676.64 386.33 677.54 124.28 678.45 122.10 679.35 382.90 680.25 548.82 681.15 392.06 682.06 127.66 682.96 118.48 683.86 377.25 684.76 548.88 685.66 397.76 686.57 131.17 687.47 115.00 688.37 371.55 689.27 548.79 690.18 403.40 691.08 134.81 691.98 111.64 692.88 365.79 693.79 548.53 694.69 409.00 695.59 138.59 696.49 108.41 697.40 359.98 698.30 548.11 699.20 414.54 700.10 142.50 701.01 105.32 701.91 354.13 702.81 547.52 703.71 420.03 704.61 146.52 705.52 102.37 706.42 348.25 707.32 546.78 708.22 425.45 709.13 150.68 710.03 99.55 710.93 342.33 711.83 545.87 712.74 430.80 713.64 154.95 714.54 96.88 715.44 336.38 716.35 544.81 717.25 436.09 718.15 159.33 719.05 94.35 719.95 330.40 720.86 543.59 721.76 441.30 722.66 163.83 723.56 91.96 724.47 324.40 725.37 542.21 726.27 446.43 727.17 168.43 728.08 89.72 728.98 318.39 729.88 540.67 730.78 451.48 731.69 173.14 732.59 87.63 733.49 312.37 734.39 538.98 735.30 456.44 736.20 177.95 737.10 85.68 738.00 306.33 738.90 537.14 739.81 461.32 740.71 182.85 741.61 83.89 742.51 300.30 743.42 535.14 744.32 466.10 745.22 187.85 746.12 82.24 747.03 294.26 747.93 533.00 748.83 470.79 749.73 192.94 750.64 80.75 751.54 288.23 752.44 530.71 753.34 475.38 754.25 198.12 755.15 79.41 756.05 282.21 756.95 528.26 757.85 479.87 758.76 203.38 759.66 78.22 760.56 276.21 761.46 525.68 762.37 484.25 763.27 208.72 764.17 77.19 765.07 270.22 765.98 522.95 766.88 488.53 767.78 214.14 768.68 76.32 769.59 264.25 770.49 520.08 771.39 492.69 772.29 219.62 773.20 75.60 774.10 258.31 775.00 517.06" fill="none" stroke="#9400D3" stroke-width="1.0" stroke-linecap="round" stroke-linejoin="round" clip-path="url(#plotClip)"/>
  <rect x="59" y="71" width="187" height="38" fill="#FFFFFF" stroke="#000000" stroke-width="1"/>
  <text x="191" y="93" font-family="Arial" font-size="12" alignment-baseline="middle" text-anchor="end">sin(x*20)*atan(x)</text>
  <line x1="201" y1="90" x2="226" y2="90" stroke="#9400D3" stroke-width="2"/>
  <path d="M 54.00 66.00 L 775.00 66.00 L 775.00 564.00 L 54.00 564.00 Z" stroke="#000000" stroke-width="1.0" fill="none"/>
</svg>
