<?xml version="1.0" encoding="UTF-8"?>
<svg xmlns="http://www.w3.org/2000/svg" width="800" height="600" viewBox="0 0 800 600">
  <defs>
    <clipPath id="plotClip">
      <rect x="0" y="0" width="800" height="600"/>
    </clipPath>
  </defs>
  <rect width="800" height="600" fill="#FFFFFF"/>
  <text x="400" y="21" font-size="16" text-anchor="middle">Legend Positions - Top Right</text>
  <polyline points="0.00 300.00 10.26 274.42 20.52 249.27 30.77 224.95 41.03 201.86 51.29 180.38 61.55 160.86 71.81 143.63 82.07 128.97 92.32 117.12 102.58 108.27 112.84 102.56 123.10 100.10 133.36 100.92 143.62 105.01 153.87 112.31 164.13 122.68 174.39 135.97 184.65 151.94 194.91 170.35 205.17 190.89 215.42 213.22 225.68 236.98 235.94 261.77 246.20 287.19 256.46 312.81 266.71 338.23 276.97 363.02 287.23 386.78 297.49 409.11 307.75 429.65 318.01 448.06 328.26 464.03 338.52 477.32 348.78 487.69 359.04 494.99 369.30 499.08 379.56 499.90 389.81 497.44 400.07 491.73 410.33 482.88 420.59 471.03 430.85 456.37 441.11 439.14 451.36 419.62 461.62 398.14 471.88 375.05 482.14 350.73 492.40 325.58 502.65 300.00" fill="none" stroke="#4A90E2" stroke-width="1.0" stroke-linecap="round" stroke-linejoin="round" clip-path="url(#plotClip)"/>
  <polyline points="0.00 300.00 10.26 287.21 20.52 274.63 30.77 262.47 41.03 250.93 51.29 240.19 61.55 230.43 71.81 221.82 82.07 214.49 92.32 208.56 102.58 204.13 112.84 201.28 123.10 200.05 133.36 200.46 143.62 202.51 153.87 206.15 164.13 211.34 174.39 217.98 184.65 225.97 194.91 235.18 205.17 245.45 215.42 256.61 225.68 268.49 235.94 280.88 246.20 293.59 256.46 306.41 266.71 319.12 276.97 331.51 287.23 343.39 297.49 354.55 307.75 364.82 318.01 374.03 328.26 382.02 338.52 388.66 348.78 393.85 359.04 397.49 369.30 399.54 379.56 399.95 389.81 398.72 400.07 395.87 410.33 391.44 420.59 385.51 430.85 378.18 441.11 369.57 451.36 359.81 461.62 349.07 471.88 337.53 482.14 325.37 492.40 312.79 502.65 300.00" fill="none" stroke="#50C878" stroke-width="1.0" stroke-linecap="round" stroke-linejoin="round" clip-path="url(#plotClip)"/>
  <rect x="620" y="10" width="170" height="70" fill="#FFFFFF" stroke="#000000" stroke-width="1"/>
  <line x1="635" y1="32" x2="660" y2="32" stroke="#4A90E2" stroke-width="2"/>
  <text x="670" y="35" font-family="Arial" font-size="10" alignment-baseline="middle">Series 1</text>
  <line x1="635" y1="57" x2="660" y2="57" stroke="#50C878" stroke-width="2" stroke-dasharray="10,5"/>
  <text x="670" y="60" font-family="Arial" font-size="10" alignment-baseline="middle">Series 2</text>
</svg>
