<?xml version="1.0" encoding="UTF-8"?>
<svg xmlns="http://www.w3.org/2000/svg" width="800" height="600" viewBox="0 0 800 600">
  <defs>
    <clipPath id="plotClip">
      <rect x="0" y="0" width="800" height="600"/>
    </clipPath>
  </defs>
  <rect width="800" height="600" fill="#FFFFFF"/>
  <text x="400" y="21" font-size="16" text-anchor="middle">Sine Waves with Legend</text>
  <polyline points="0.00 300.00 8.08 287.32 16.16 274.68 24.24 262.15 32.32 249.77 40.40 237.59 48.48 225.67 56.57 214.04 64.65 202.76 72.73 191.87 80.81 181.42 88.89 171.44 96.97 161.98 105.05 153.08 113.13 144.77 121.21 137.08 129.29 130.05 137.37 123.71 145.45 118.07 153.54 113.17 161.62 109.02 169.70 105.64 177.78 103.04 185.86 101.23 193.94 100.23 202.02 100.03 210.10 100.63 218.18 102.04 226.26 104.24 234.34 107.23 242.42 111.00 250.51 115.53 258.59 120.80 266.67 126.79 274.75 133.49 282.83 140.85 290.91 148.85 298.99 157.46 307.07 166.65 315.15 176.37 323.23 186.59 331.31 197.26 339.39 208.35 347.47 219.81 355.56 231.60 363.64 243.65 371.72 255.94 379.80 268.40 387.88 280.99 395.96 293.65 404.04 306.35 412.12 319.01 420.20 331.60 428.28 344.06 436.36 356.35 444.44 368.40 452.53 380.19 460.61 391.65 468.69 402.74 476.77 413.41 484.85 423.63 492.93 433.35 501.01 442.54 509.09 451.15 517.17 459.15 525.25 466.51 533.33 473.21 541.41 479.20 549.49 484.47 557.58 489.00 565.66 492.77 573.74 495.76 581.82 497.96 589.90 499.37 597.98 499.97 606.06 499.77 614.14 498.77 622.22 496.96 630.30 494.36 638.38 490.98 646.46 486.83 654.55 481.93 662.63 476.29 670.71 469.95 678.79 462.92 686.87 455.23 694.95 446.92 703.03 438.02 711.11 428.56 719.19 418.58 727.27 408.13 735.35 397.24 743.43 385.96 751.52 374.33 759.60 362.41 767.68 350.23 775.76 337.85 783.84 325.32 791.92 312.68 800.00 300.00" fill="none" stroke="#4A90E2" stroke-width="1.0" stroke-linecap="round" stroke-linejoin="round" clip-path="url(#plotClip)"/>
  <polyline points="0.00 300.00 8.08 291.12 16.16 282.28 24.24 273.50 32.32 264.84 40.40 256.32 48.48 247.97 56.57 239.83 64.65 231.93 72.73 224.31 80.81 216.99 88.89 210.01 96.97 203.39 105.05 197.16 113.13 191.34 121.21 185.96 129.29 181.04 137.37 176.60 145.45 172.65 153.54 169.22 161.62 166.31 169.70 163.95 177.78 162.13 185.86 160.86 193.94 160.16 202.02 160.02 210.10 160.44 218.18 161.42 226.26 162.97 234.34 165.06 242.42 167.70 250.51 170.87 258.59 174.56 266.67 178.76 274.75 183.44 282.83 188.59 290.91 194.20 298.99 200.22 307.07 206.65 315.15 213.46 323.23 220.61 331.31 228.09 339.39 235.85 347.47 243.87 355.56 252.12 363.64 260.56 371.72 269.16 379.80 277.88 387.88 286.69 395.96 295.56 404.04 304.44 412.12 313.31 420.20 322.12 428.28 330.84 436.36 339.44 444.44 347.88 452.53 356.13 460.61 364.15 468.69 371.91 476.77 379.39 484.85 386.54 492.93 393.35 501.01 399.78 509.09 405.80 517.17 411.41 525.25 416.56 533.33 421.24 541.41 425.44 549.49 429.13 557.58 432.30 565.66 434.94 573.74 437.03 581.82 438.58 589.90 439.56 597.98 439.98 606.06 439.84 614.14 439.14 622.22 437.87 630.30 436.05 638.38 433.69 646.46 430.78 654.55 427.35 662.63 423.40 670.71 418.96 678.79 414.04 686.87 408.66 694.95 402.84 703.03 396.61 711.11 389.99 719.19 383.01 727.27 375.69 735.35 368.07 743.43 360.17 751.52 352.03 759.60 343.68 767.68 335.16 775.76 326.50 783.84 317.72 791.92 308.88 800.00 300.00" fill="none" stroke="#50C878" stroke-width="1.0" stroke-dasharray="8,4" stroke-linecap="round" stroke-linejoin="round" clip-path="url(#plotClip)"/>
  <polyline points="0.00 300.00 8.08 294.93 16.16 289.87 24.24 284.86 32.32 279.91 40.40 275.04 48.48 270.27 56.57 265.62 64.65 261.10 72.73 256.75 80.81 252.57 88.89 248.58 96.97 244.79 105.05 241.23 113.13 237.91 121.21 234.83 129.29 232.02 137.37 229.48 145.45 227.23 153.54 225.27 161.62 223.61 169.70 222.26 177.78 221.22 185.86 220.49 193.94 220.09 202.02 220.01 210.10 220.25 218.18 220.81 226.26 221.70 234.34 222.89 242.42 224.40 250.51 226.21 258.59 228.32 266.67 230.72 274.75 233.39 282.83 236.34 290.91 239.54 298.99 242.98 307.07 246.66 315.15 250.55 323.23 254.64 331.31 258.91 339.39 263.34 347.47 267.93 355.56 272.64 363.64 277.46 371.72 282.38 379.80 287.36 387.88 292.40 395.96 297.46 404.04 302.54 412.12 307.60 420.20 312.64 428.28 317.62 436.36 322.54 444.44 327.36 452.53 332.07 460.61 336.66 468.69 341.09 476.77 345.36 484.85 349.45 492.93 353.34 501.01 357.02 509.09 360.46 517.17 363.66 525.25 366.61 533.33 369.28 541.41 371.68 549.49 373.79 557.58 375.60 565.66 377.11 573.74 378.30 581.82 379.19 589.90 379.75 597.98 379.99 606.06 379.91 614.14 379.51 622.22 378.78 630.30 377.74 638.38 376.39 646.46 374.73 654.55 372.77 662.63 370.52 670.71 367.98 678.79 365.17 686.87 362.09 694.95 358.77 703.03 355.21 711.11 351.42 719.19 347.43 727.27 343.25 735.35 338.90 743.43 334.38 751.52 329.73 759.60 324.96 767.68 320.09 775.76 315.14 783.84 310.13 791.92 305.07 800.00 300.00" fill="none" stroke="#FFD700" stroke-width="1.0" stroke-dasharray="2,2" stroke-linecap="round" stroke-linejoin="round" clip-path="url(#plotClip)"/>
  <rect x="10" y="10" width="170" height="95" fill="#FFFFFF" stroke="#000000" stroke-width="1"/>
  <line x1="25" y1="32" x2="50" y2="32" stroke="#4A90E2" stroke-width="2"/>
  <text x="60" y="35" font-family="Arial" font-size="11" alignment-baseline="middle">Amplitude 1.0</text>
  <line x1="25" y1="57" x2="50" y2="57" stroke="#50C878" stroke-width="2" stroke-dasharray="10,5"/>
  <text x="60" y="60" font-family="Arial" font-size="11" alignment-baseline="middle">Amplitude 0.7</text>
  <line x1="25" y1="82" x2="50" y2="82" stroke="#FFD700" stroke-width="2" stroke-dasharray="2,3"/>
  <text x="60" y="85" font-family="Arial" font-size="11" alignment-baseline="middle">Amplitude 0.4</text>
</svg>
