<?xml version="1.0" encoding="UTF-8"?>
<svg xmlns="http://www.w3.org/2000/svg" width="800" height="600" viewBox="0 0 800 600">
  <rect width="800" height="600" fill="#FFFFFF"/>
  <text x="400" y="21" font-size="16" text-anchor="middle">Line Style Demonstration</text>
  <polyline points="0.00 75.00 800.00 75.00" fill="none" stroke="#FF0000" stroke-width="2.0" stroke-linecap="round" stroke-linejoin="round"/>
  <polyline points="0.00 150.00 800.00 150.00" fill="none" stroke="#00FF00" stroke-width="1.5" stroke-dasharray="8,4" stroke-linecap="round" stroke-linejoin="round"/>
  <polyline points="0.00 225.00 800.00 225.00" fill="none" stroke="#0000FF" stroke-width="1.0" stroke-dasharray="2,2" stroke-linecap="round" stroke-linejoin="round"/>
  <polyline points="0.00 300.00 800.00 300.00" fill="none" stroke="#FF00FF" stroke-width="2.5" stroke-dasharray="8,4,2,4" stroke-linecap="round" stroke-linejoin="round"/>
  <polyline points="0.00 375.00 800.00 375.00" fill="none" stroke="#FFA500" stroke-width="4.0" stroke-linecap="round" stroke-linejoin="round"/>
  <polyline points="0.00 450.00 800.00 450.00" fill="none" stroke="#00FFFF" stroke-width="0.5" stroke-dasharray="2,2" stroke-linecap="round" stroke-linejoin="round"/>
  <polyline points="0.00 525.00 16.00 510.10 32.00 495.79 48.00 482.65 64.00 471.20 80.00 461.89 96.00 455.10 112.00 451.09 128.00 450.03 144.00 451.96 160.00 456.80 176.00 464.36 192.00 474.34 208.00 486.34 224.00 499.88 240.00 514.42 256.00 529.38 272.00 544.17 288.00 558.19 304.00 570.89 320.00 581.76 336.00 590.37 352.00 596.37 368.00 599.53 384.00 599.71 400.00 596.92 416.00 591.26 432.00 582.96 448.00 572.34 464.00 559.85 480.00 545.96 496.00 531.23 512.00 516.26 528.00 501.63 544.00 487.94 560.00 475.73 576.00 465.47 592.00 457.60 608.00 452.41 624.00 450.11 640.00 450.80 656.00 454.45 672.00 460.91 688.00 469.92 704.00 481.13 720.00 494.09 736.00 508.28 752.00 523.14 768.00 538.07 784.00 552.49 800.00 565.80" fill="none" stroke="#8B4513" stroke-width="1.0" stroke-linecap="round" stroke-linejoin="round"/>
</svg>
