<?xml version="1.0" encoding="UTF-8"?>
<svg xmlns="http://www.w3.org/2000/svg" width="700" height="1200" viewBox="0 0 700 1200">
  <rect width="700" height="1200" fill="#FFFFFF"/>
  <text x="350" y="21" font-size="18" text-anchor="middle" font-weight="bold">1x3 Grid Layout - Vertical Panels</text>
  <g transform="translate(0,40)" clip-path="url(#clip-0-0)">
    <clipPath id="clip-0-0">
      <rect x="0" y="0" width="700" height="386"/>
    </clipPath>
    <text x="350" y="15" font-size="12" text-anchor="middle">Sine Wave</text>
  <polyline points="0.00 193.00 7.00 182.90 14.00 172.84 21.00 162.86 28.00 153.00 35.00 143.30 42.00 133.79 49.00 124.52 56.00 115.52 63.00 106.82 70.00 98.46 77.00 90.48 84.00 82.90 91.00 75.76 98.00 69.08 105.00 62.88 112.00 57.20 119.00 52.06 126.00 47.47 133.00 43.46 140.00 40.04 147.00 37.22 154.00 35.02 161.00 33.43 168.00 32.48 175.00 32.17 182.00 32.48 189.00 33.43 196.00 35.02 203.00 37.22 210.00 40.04 217.00 43.46 224.00 47.47 231.00 52.06 238.00 57.20 245.00 62.88 252.00 69.08 259.00 75.76 266.00 82.90 273.00 90.48 280.00 98.46 287.00 106.82 294.00 115.52 301.00 124.52 308.00 133.79 315.00 143.30 322.00 153.00 329.00 162.86 336.00 172.84 343.00 182.90 350.00 193.00 357.00 203.10 364.00 213.16 371.00 223.14 378.00 233.00 385.00 242.70 392.00 252.21 399.00 261.48 406.00 270.48 413.00 279.18 420.00 287.54 427.00 295.52 434.00 303.10 441.00 310.24 448.00 316.92 455.00 323.12 462.00 328.80 469.00 333.94 476.00 338.53 483.00 342.54 490.00 345.96 497.00 348.78 504.00 350.98 511.00 352.57 518.00 353.52 525.00 353.83 532.00 353.52 539.00 352.57 546.00 350.98 553.00 348.78 560.00 345.96 567.00 342.54 574.00 338.53 581.00 333.94 588.00 328.80 595.00 323.12 602.00 316.92 609.00 310.24 616.00 303.10 623.00 295.52 630.00 287.54 637.00 279.18 644.00 270.48 651.00 261.48 658.00 252.21 665.00 242.70 672.00 233.00 679.00 223.14 686.00 213.16 693.00 203.10" fill="none" stroke="#4A90E2" stroke-width="1.0" stroke-linecap="round" stroke-linejoin="round" clip-path="url(#plotClip)"/>
  </g>
  <g transform="translate(0,426)" clip-path="url(#clip-1-0)">
    <clipPath id="clip-1-0">
      <rect x="0" y="0" width="700" height="386"/>
    </clipPath>
    <text x="350" y="15" font-size="12" text-anchor="middle">Bar Chart</text>
  <rect x="91.00" y="225.17" width="98.00" height="160.83" fill="#FFD700"/>
  <rect x="231.00" y="128.67" width="98.00" height="257.33" fill="#FF6B6B"/>
  <rect x="371.00" y="160.83" width="98.00" height="225.17" fill="#9C27B0"/>
  <rect x="511.00" y="64.33" width="98.00" height="321.67" fill="#00BCD4"/>
  </g>
  <g transform="translate(0,812)" clip-path="url(#clip-2-0)">
    <clipPath id="clip-2-0">
      <rect x="0" y="0" width="700" height="386"/>
    </clipPath>
    <text x="350" y="15" font-size="12" text-anchor="middle">Scatter Plot</text>
  <circle cx="427.52" cy="142.57" r="8.00" fill="#FF6B6B" clip-path="url(#plotClip)"/>
  <circle cx="20.70" cy="238.97" r="8.00" fill="#FF6B6B" clip-path="url(#plotClip)"/>
  <circle cx="267.79" cy="364.53" r="8.00" fill="#FF6B6B" clip-path="url(#plotClip)"/>
  <circle cx="310.28" cy="28.75" r="8.00" fill="#FF6B6B" clip-path="url(#plotClip)"/>
  <circle cx="412.63" cy="367.07" r="8.00" fill="#FF6B6B" clip-path="url(#plotClip)"/>
  <circle cx="429.30" cy="331.13" r="8.00" fill="#FF6B6B" clip-path="url(#plotClip)"/>
  <circle cx="546.21" cy="85.68" r="8.00" fill="#FF6B6B" clip-path="url(#plotClip)"/>
  <circle cx="114.53" cy="240.20" r="8.00" fill="#FF6B6B" clip-path="url(#plotClip)"/>
  <circle cx="398.89" cy="10.78" r="8.00" fill="#FF6B6B" clip-path="url(#plotClip)"/>
  <circle cx="517.54" cy="159.44" r="8.00" fill="#FF6B6B" clip-path="url(#plotClip)"/>
  <circle cx="594.15" cy="352.33" r="8.00" fill="#FF6B6B" clip-path="url(#plotClip)"/>
  <circle cx="589.87" cy="362.58" r="8.00" fill="#FF6B6B" clip-path="url(#plotClip)"/>
  <circle cx="323.15" cy="147.56" r="8.00" fill="#FF6B6B" clip-path="url(#plotClip)"/>
  <circle cx="330.39" cy="380.78" r="8.00" fill="#FF6B6B" clip-path="url(#plotClip)"/>
  <circle cx="2.30" cy="162.91" r="8.00" fill="#FF6B6B" clip-path="url(#plotClip)"/>
  <circle cx="563.29" cy="274.81" r="8.00" fill="#FF6B6B" clip-path="url(#plotClip)"/>
  <circle cx="620.03" cy="277.79" r="8.00" fill="#FF6B6B" clip-path="url(#plotClip)"/>
  <circle cx="302.26" cy="28.22" r="8.00" fill="#FF6B6B" clip-path="url(#plotClip)"/>
  <circle cx="76.48" cy="127.97" r="8.00" fill="#FF6B6B" clip-path="url(#plotClip)"/>
  <circle cx="139.50" cy="236.24" r="8.00" fill="#FF6B6B" clip-path="url(#plotClip)"/>
  <circle cx="164.23" cy="142.94" r="8.00" fill="#FF6B6B" clip-path="url(#plotClip)"/>
  <circle cx="378.82" cy="102.57" r="8.00" fill="#FF6B6B" clip-path="url(#plotClip)"/>
  <circle cx="629.52" cy="35.57" r="8.00" fill="#FF6B6B" clip-path="url(#plotClip)"/>
  <circle cx="209.32" cy="302.76" r="8.00" fill="#FF6B6B" clip-path="url(#plotClip)"/>
  <circle cx="591.60" cy="206.68" r="8.00" fill="#FF6B6B" clip-path="url(#plotClip)"/>
  <circle cx="290.04" cy="278.24" r="8.00" fill="#FF6B6B" clip-path="url(#plotClip)"/>
  <circle cx="582.90" cy="233.28" r="8.00" fill="#FF6B6B" clip-path="url(#plotClip)"/>
  <circle cx="387.30" cy="311.21" r="8.00" fill="#FF6B6B" clip-path="url(#plotClip)"/>
  <circle cx="4.65" cy="77.22" r="8.00" fill="#FF6B6B" clip-path="url(#plotClip)"/>
  <circle cx="474.08" cy="326.23" r="8.00" fill="#FF6B6B" clip-path="url(#plotClip)"/>
  <circle cx="171.41" cy="262.96" r="8.00" fill="#FF6B6B" clip-path="url(#plotClip)"/>
  <circle cx="565.53" cy="20.25" r="8.00" fill="#FF6B6B" clip-path="url(#plotClip)"/>
  <circle cx="543.51" cy="225.16" r="8.00" fill="#FF6B6B" clip-path="url(#plotClip)"/>
  <circle cx="526.60" cy="4.00" r="8.00" fill="#FF6B6B" clip-path="url(#plotClip)"/>
  <circle cx="619.28" cy="54.57" r="8.00" fill="#FF6B6B" clip-path="url(#plotClip)"/>
  <circle cx="245.81" cy="57.87" r="8.00" fill="#FF6B6B" clip-path="url(#plotClip)"/>
  <circle cx="578.01" cy="288.57" r="8.00" fill="#FF6B6B" clip-path="url(#plotClip)"/>
  <circle cx="625.07" cy="330.29" r="8.00" fill="#FF6B6B" clip-path="url(#plotClip)"/>
  <circle cx="131.07" cy="10.34" r="8.00" fill="#FF6B6B" clip-path="url(#plotClip)"/>
  <circle cx="487.30" cy="368.62" r="8.00" fill="#FF6B6B" clip-path="url(#plotClip)"/>
  <circle cx="551.96" cy="284.49" r="8.00" fill="#FF6B6B" clip-path="url(#plotClip)"/>
  <circle cx="352.84" cy="187.54" r="8.00" fill="#FF6B6B" clip-path="url(#plotClip)"/>
  <circle cx="615.71" cy="74.34" r="8.00" fill="#FF6B6B" clip-path="url(#plotClip)"/>
  <circle cx="181.83" cy="91.52" r="8.00" fill="#FF6B6B" clip-path="url(#plotClip)"/>
  <circle cx="585.37" cy="141.76" r="8.00" fill="#FF6B6B" clip-path="url(#plotClip)"/>
  <circle cx="22.32" cy="240.96" r="8.00" fill="#FF6B6B" clip-path="url(#plotClip)"/>
  <circle cx="537.05" cy="102.01" r="8.00" fill="#FF6B6B" clip-path="url(#plotClip)"/>
  <circle cx="243.76" cy="1.17" r="8.00" fill="#FF6B6B" clip-path="url(#plotClip)"/>
  <circle cx="315.40" cy="207.19" r="8.00" fill="#FF6B6B" clip-path="url(#plotClip)"/>
  <circle cx="672.18" cy="204.03" r="8.00" fill="#FF6B6B" clip-path="url(#plotClip)"/>
  </g>
</svg>
