<?xml version="1.0" encoding="UTF-8"?>
<svg xmlns="http://www.w3.org/2000/svg" width="1200" height="900" viewBox="0 0 1200 900">
  <rect width="1200" height="900" fill="#FFFFFF"/>
  <text x="600" y="21" font-size="18" text-anchor="middle" font-weight="bold">2x2 Grid Layout - Multiple Plot Types</text>
  <g transform="translate(0,40)" clip-path="url(#clip-0-0)">
    <clipPath id="clip-0-0">
      <rect x="0" y="0" width="600" height="430"/>
    </clipPath>
    <text x="300" y="15" font-size="12" text-anchor="middle">Sine Wave</text>
  <polyline points="0.00 215.00 6.00 203.75 12.00 192.54 18.00 181.43 24.00 170.44 30.00 159.63 36.00 149.04 42.00 138.71 48.00 128.69 54.00 119.00 60.00 109.69 66.00 100.79 72.00 92.35 78.00 84.39 84.00 76.95 90.00 70.05 96.00 63.72 102.00 58.00 108.00 52.89 114.00 48.42 120.00 44.60 126.00 41.46 132.00 39.01 138.00 37.25 144.00 36.19 150.00 35.83 156.00 36.19 162.00 37.25 168.00 39.01 174.00 41.46 180.00 44.60 186.00 48.42 192.00 52.89 198.00 58.00 204.00 63.72 210.00 70.05 216.00 76.95 222.00 84.39 228.00 92.35 234.00 100.79 240.00 109.69 246.00 119.00 252.00 128.69 258.00 138.71 264.00 149.04 270.00 159.63 276.00 170.44 282.00 181.43 288.00 192.54 294.00 203.75 300.00 215.00 306.00 226.25 312.00 237.46 318.00 248.57 324.00 259.56 330.00 270.37 336.00 280.96 342.00 291.29 348.00 301.31 354.00 311.00 360.00 320.31 366.00 329.21 372.00 337.65 378.00 345.61 384.00 353.05 390.00 359.95 396.00 366.28 402.00 372.00 408.00 377.11 414.00 381.58 420.00 385.40 426.00 388.54 432.00 390.99 438.00 392.75 444.00 393.81 450.00 394.17 456.00 393.81 462.00 392.75 468.00 390.99 474.00 388.54 480.00 385.40 486.00 381.58 492.00 377.11 498.00 372.00 504.00 366.28 510.00 359.95 516.00 353.05 522.00 345.61 528.00 337.65 534.00 329.21 540.00 320.31 546.00 311.00 552.00 301.31 558.00 291.29 564.00 280.96 570.00 270.37 576.00 259.56 582.00 248.57 588.00 237.46 594.00 226.25" fill="none" stroke="#4A90E2" stroke-width="1.0" stroke-linecap="round" stroke-linejoin="round" clip-path="url(#plotClip)"/>
  </g>
  <g transform="translate(600,40)" clip-path="url(#clip-0-1)">
    <clipPath id="clip-0-1">
      <rect x="0" y="0" width="600" height="430"/>
    </clipPath>
    <text x="300" y="15" font-size="12" text-anchor="middle">Cosine Wave</text>
  <polyline points="0.00 35.83 6.00 36.19 12.00 37.25 18.00 39.01 24.00 41.46 30.00 44.60 36.00 48.42 42.00 52.89 48.00 58.00 54.00 63.72 60.00 70.05 66.00 76.95 72.00 84.39 78.00 92.35 84.00 100.79 90.00 109.69 96.00 119.00 102.00 128.69 108.00 138.71 114.00 149.04 120.00 159.63 126.00 170.44 132.00 181.43 138.00 192.54 144.00 203.75 150.00 215.00 156.00 226.25 162.00 237.46 168.00 248.57 174.00 259.56 180.00 270.37 186.00 280.96 192.00 291.29 198.00 301.31 204.00 311.00 210.00 320.31 216.00 329.21 222.00 337.65 228.00 345.61 234.00 353.05 240.00 359.95 246.00 366.28 252.00 372.00 258.00 377.11 264.00 381.58 270.00 385.40 276.00 388.54 282.00 390.99 288.00 392.75 294.00 393.81 300.00 394.17 306.00 393.81 312.00 392.75 318.00 390.99 324.00 388.54 330.00 385.40 336.00 381.58 342.00 377.11 348.00 372.00 354.00 366.28 360.00 359.95 366.00 353.05 372.00 345.61 378.00 337.65 384.00 329.21 390.00 320.31 396.00 311.00 402.00 301.31 408.00 291.29 414.00 280.96 420.00 270.37 426.00 259.56 432.00 248.57 438.00 237.46 444.00 226.25 450.00 215.00 456.00 203.75 462.00 192.54 468.00 181.43 474.00 170.44 480.00 159.63 486.00 149.04 492.00 138.71 498.00 128.69 504.00 119.00 510.00 109.69 516.00 100.79 522.00 92.35 528.00 84.39 534.00 76.95 540.00 70.05 546.00 63.72 552.00 58.00 558.00 52.89 564.00 48.42 570.00 44.60 576.00 41.46 582.00 39.01 588.00 37.25 594.00 36.19" fill="none" stroke="#50C878" stroke-width="1.0" stroke-linecap="round" stroke-linejoin="round" clip-path="url(#plotClip)"/>
  </g>
  <g transform="translate(0,470)" clip-path="url(#clip-1-0)">
    <clipPath id="clip-1-0">
      <rect x="0" y="0" width="600" height="430"/>
    </clipPath>
    <text x="300" y="15" font-size="12" text-anchor="middle">Bar Chart</text>
  <rect x="78.00" y="250.83" width="84.00" height="179.17" fill="#FFD700"/>
  <rect x="198.00" y="143.33" width="84.00" height="286.67" fill="#FF6B6B"/>
  <rect x="318.00" y="179.17" width="84.00" height="250.83" fill="#9C27B0"/>
  <rect x="438.00" y="71.67" width="84.00" height="358.33" fill="#00BCD4"/>
  </g>
  <g transform="translate(600,470)" clip-path="url(#clip-1-1)">
    <clipPath id="clip-1-1">
      <rect x="0" y="0" width="600" height="430"/>
    </clipPath>
    <text x="300" y="15" font-size="12" text-anchor="middle">Scatter Plot</text>
  <circle cx="366.45" cy="158.82" r="8.00" fill="#FF6B6B" clip-path="url(#plotClip)"/>
  <circle cx="17.74" cy="266.20" r="8.00" fill="#FF6B6B" clip-path="url(#plotClip)"/>
  <circle cx="229.54" cy="406.09" r="8.00" fill="#FF6B6B" clip-path="url(#plotClip)"/>
  <circle cx="265.95" cy="32.03" r="8.00" fill="#FF6B6B" clip-path="url(#plotClip)"/>
  <circle cx="353.68" cy="408.92" r="8.00" fill="#FF6B6B" clip-path="url(#plotClip)"/>
  <circle cx="367.97" cy="368.88" r="8.00" fill="#FF6B6B" clip-path="url(#plotClip)"/>
  <circle cx="468.18" cy="95.45" r="8.00" fill="#FF6B6B" clip-path="url(#plotClip)"/>
  <circle cx="98.17" cy="267.58" r="8.00" fill="#FF6B6B" clip-path="url(#plotClip)"/>
  <circle cx="341.90" cy="12.01" r="8.00" fill="#FF6B6B" clip-path="url(#plotClip)"/>
  <circle cx="443.60" cy="177.62" r="8.00" fill="#FF6B6B" clip-path="url(#plotClip)"/>
  <circle cx="509.27" cy="392.49" r="8.00" fill="#FF6B6B" clip-path="url(#plotClip)"/>
  <circle cx="505.60" cy="403.91" r="8.00" fill="#FF6B6B" clip-path="url(#plotClip)"/>
  <circle cx="276.99" cy="164.38" r="8.00" fill="#FF6B6B" clip-path="url(#plotClip)"/>
  <circle cx="283.19" cy="424.19" r="8.00" fill="#FF6B6B" clip-path="url(#plotClip)"/>
  <circle cx="1.97" cy="181.48" r="8.00" fill="#FF6B6B" clip-path="url(#plotClip)"/>
  <circle cx="482.82" cy="306.14" r="8.00" fill="#FF6B6B" clip-path="url(#plotClip)"/>
  <circle cx="531.45" cy="309.45" r="8.00" fill="#FF6B6B" clip-path="url(#plotClip)"/>
  <circle cx="259.08" cy="31.44" r="8.00" fill="#FF6B6B" clip-path="url(#plotClip)"/>
  <circle cx="65.55" cy="142.55" r="8.00" fill="#FF6B6B" clip-path="url(#plotClip)"/>
  <circle cx="119.57" cy="263.17" r="8.00" fill="#FF6B6B" clip-path="url(#plotClip)"/>
  <circle cx="140.77" cy="159.24" r="8.00" fill="#FF6B6B" clip-path="url(#plotClip)"/>
  <circle cx="324.70" cy="114.26" r="8.00" fill="#FF6B6B" clip-path="url(#plotClip)"/>
  <circle cx="539.59" cy="39.63" r="8.00" fill="#FF6B6B" clip-path="url(#plotClip)"/>
  <circle cx="179.42" cy="337.28" r="8.00" fill="#FF6B6B" clip-path="url(#plotClip)"/>
  <circle cx="507.08" cy="230.24" r="8.00" fill="#FF6B6B" clip-path="url(#plotClip)"/>
  <circle cx="248.60" cy="309.96" r="8.00" fill="#FF6B6B" clip-path="url(#plotClip)"/>
  <circle cx="499.63" cy="259.87" r="8.00" fill="#FF6B6B" clip-path="url(#plotClip)"/>
  <circle cx="331.98" cy="346.68" r="8.00" fill="#FF6B6B" clip-path="url(#plotClip)"/>
  <circle cx="3.99" cy="86.02" r="8.00" fill="#FF6B6B" clip-path="url(#plotClip)"/>
  <circle cx="406.35" cy="363.41" r="8.00" fill="#FF6B6B" clip-path="url(#plotClip)"/>
  <circle cx="146.92" cy="292.94" r="8.00" fill="#FF6B6B" clip-path="url(#plotClip)"/>
  <circle cx="484.74" cy="22.56" r="8.00" fill="#FF6B6B" clip-path="url(#plotClip)"/>
  <circle cx="465.87" cy="250.83" r="8.00" fill="#FF6B6B" clip-path="url(#plotClip)"/>
  <circle cx="451.37" cy="4.46" r="8.00" fill="#FF6B6B" clip-path="url(#plotClip)"/>
  <circle cx="530.81" cy="60.79" r="8.00" fill="#FF6B6B" clip-path="url(#plotClip)"/>
  <circle cx="210.69" cy="64.47" r="8.00" fill="#FF6B6B" clip-path="url(#plotClip)"/>
  <circle cx="495.43" cy="321.46" r="8.00" fill="#FF6B6B" clip-path="url(#plotClip)"/>
  <circle cx="535.78" cy="367.93" r="8.00" fill="#FF6B6B" clip-path="url(#plotClip)"/>
  <circle cx="112.35" cy="11.51" r="8.00" fill="#FF6B6B" clip-path="url(#plotClip)"/>
  <circle cx="417.69" cy="410.63" r="8.00" fill="#FF6B6B" clip-path="url(#plotClip)"/>
  <circle cx="473.11" cy="316.92" r="8.00" fill="#FF6B6B" clip-path="url(#plotClip)"/>
  <circle cx="302.44" cy="208.92" r="8.00" fill="#FF6B6B" clip-path="url(#plotClip)"/>
  <circle cx="527.75" cy="82.81" r="8.00" fill="#FF6B6B" clip-path="url(#plotClip)"/>
  <circle cx="155.86" cy="101.95" r="8.00" fill="#FF6B6B" clip-path="url(#plotClip)"/>
  <circle cx="501.75" cy="157.92" r="8.00" fill="#FF6B6B" clip-path="url(#plotClip)"/>
  <circle cx="19.13" cy="268.43" r="8.00" fill="#FF6B6B" clip-path="url(#plotClip)"/>
  <circle cx="460.33" cy="113.64" r="8.00" fill="#FF6B6B" clip-path="url(#plotClip)"/>
  <circle cx="208.94" cy="1.31" r="8.00" fill="#FF6B6B" clip-path="url(#plotClip)"/>
  <circle cx="270.34" cy="230.80" r="8.00" fill="#FF6B6B" clip-path="url(#plotClip)"/>
  <circle cx="576.15" cy="227.29" r="8.00" fill="#FF6B6B" clip-path="url(#plotClip)"/>
  </g>
</svg>
