<?xml version="1.0" encoding="UTF-8"?>
<svg xmlns="http://www.w3.org/2000/svg" width="1200" height="800" viewBox="0 0 1200 800">
  <rect width="1200" height="800" fill="#FFFFFF"/>
  <text x="600" y="21" font-size="18" text-anchor="middle" font-weight="bold">Custom Layout - Dashboard Style</text>
  <g transform="translate(0,0)" clip-path="url(#clip-custom-0)">
    <clipPath id="clip-custom-0">
      <rect x="0" y="0" width="780" height="800"/>
    </clipPath>
    <text x="390" y="15" font-size="12" text-anchor="middle">Sine Wave</text>
  <polyline points="0.00 400.00 7.80 379.07 15.60 358.22 23.40 337.54 31.20 317.10 39.00 296.99 46.80 277.29 54.60 258.07 62.40 239.42 70.20 221.39 78.00 204.07 85.80 187.53 93.60 171.82 101.40 157.01 109.20 143.16 117.00 130.33 124.80 118.56 132.60 107.90 140.40 98.39 148.20 90.07 156.00 82.98 163.80 77.14 171.60 72.57 179.40 69.30 187.20 67.32 195.00 66.67 202.80 67.32 210.60 69.30 218.40 72.57 226.20 77.14 234.00 82.98 241.80 90.07 249.60 98.39 257.40 107.90 265.20 118.56 273.00 130.33 280.80 143.16 288.60 157.01 296.40 171.82 304.20 187.53 312.00 204.07 319.80 221.39 327.60 239.42 335.40 258.07 343.20 277.29 351.00 296.99 358.80 317.10 366.60 337.54 374.40 358.22 382.20 379.07 390.00 400.00 397.80 420.93 405.60 441.78 413.40 462.46 421.20 482.90 429.00 503.01 436.80 522.71 444.60 541.93 452.40 560.58 460.20 578.61 468.00 595.93 475.80 612.47 483.60 628.18 491.40 642.99 499.20 656.84 507.00 669.67 514.80 681.44 522.60 692.10 530.40 701.61 538.20 709.93 546.00 717.02 553.80 722.86 561.60 727.43 569.40 730.70 577.20 732.68 585.00 733.33 592.80 732.68 600.60 730.70 608.40 727.43 616.20 722.86 624.00 717.02 631.80 709.93 639.60 701.61 647.40 692.10 655.20 681.44 663.00 669.67 670.80 656.84 678.60 642.99 686.40 628.18 694.20 612.47 702.00 595.93 709.80 578.61 717.60 560.58 725.40 541.93 733.20 522.71 741.00 503.01 748.80 482.90 756.60 462.46 764.40 441.78 772.20 420.93" fill="none" stroke="#4A90E2" stroke-width="1.0" stroke-linecap="round" stroke-linejoin="round" clip-path="url(#plotClip)"/>
  </g>
  <g transform="translate(780,0)" clip-path="url(#clip-custom-1)">
    <clipPath id="clip-custom-1">
      <rect x="0" y="0" width="420" height="400"/>
    </clipPath>
    <text x="210" y="15" font-size="12" text-anchor="middle">Bar Chart</text>
  <rect x="54.60" y="233.33" width="58.80" height="166.67" fill="#FFD700"/>
  <rect x="138.60" y="133.33" width="58.80" height="266.67" fill="#FF6B6B"/>
  <rect x="222.60" y="166.67" width="58.80" height="233.33" fill="#9C27B0"/>
  <rect x="306.60" y="66.67" width="58.80" height="333.33" fill="#00BCD4"/>
  </g>
  <g transform="translate(780,400)" clip-path="url(#clip-custom-2)">
    <clipPath id="clip-custom-2">
      <rect x="0" y="0" width="420" height="400"/>
    </clipPath>
    <text x="210" y="15" font-size="12" text-anchor="middle">Scatter Plot</text>
  <circle cx="335.60" cy="283.45" r="8.00" fill="#FF6B6B" clip-path="url(#plotClip)"/>
  <circle cx="46.05" cy="57.70" r="8.00" fill="#FF6B6B" clip-path="url(#plotClip)"/>
  <circle cx="259.24" cy="272.51" r="8.00" fill="#FF6B6B" clip-path="url(#plotClip)"/>
  <circle cx="292.75" cy="91.46" r="8.00" fill="#FF6B6B" clip-path="url(#plotClip)"/>
  <circle cx="318.46" cy="205.77" r="8.00" fill="#FF6B6B" clip-path="url(#plotClip)"/>
  <circle cx="152.63" cy="336.72" r="8.00" fill="#FF6B6B" clip-path="url(#plotClip)"/>
  <circle cx="383.67" cy="296.99" r="8.00" fill="#FF6B6B" clip-path="url(#plotClip)"/>
  <circle cx="162.34" cy="157.67" r="8.00" fill="#FF6B6B" clip-path="url(#plotClip)"/>
  <circle cx="74.28" cy="291.62" r="8.00" fill="#FF6B6B" clip-path="url(#plotClip)"/>
  <circle cx="196.12" cy="364.79" r="8.00" fill="#FF6B6B" clip-path="url(#plotClip)"/>
  <circle cx="88.99" cy="308.62" r="8.00" fill="#FF6B6B" clip-path="url(#plotClip)"/>
  <circle cx="391.90" cy="356.74" r="8.00" fill="#FF6B6B" clip-path="url(#plotClip)"/>
  <circle cx="135.20" cy="338.90" r="8.00" fill="#FF6B6B" clip-path="url(#plotClip)"/>
  <circle cx="264.47" cy="10.63" r="8.00" fill="#FF6B6B" clip-path="url(#plotClip)"/>
  <circle cx="408.55" cy="15.75" r="8.00" fill="#FF6B6B" clip-path="url(#plotClip)"/>
  <circle cx="323.62" cy="335.77" r="8.00" fill="#FF6B6B" clip-path="url(#plotClip)"/>
  <circle cx="147.09" cy="319.09" r="8.00" fill="#FF6B6B" clip-path="url(#plotClip)"/>
  <circle cx="140.49" cy="196.40" r="8.00" fill="#FF6B6B" clip-path="url(#plotClip)"/>
  <circle cx="146.39" cy="109.53" r="8.00" fill="#FF6B6B" clip-path="url(#plotClip)"/>
  <circle cx="68.46" cy="286.58" r="8.00" fill="#FF6B6B" clip-path="url(#plotClip)"/>
  <circle cx="411.63" cy="9.59" r="8.00" fill="#FF6B6B" clip-path="url(#plotClip)"/>
  <circle cx="326.26" cy="5.67" r="8.00" fill="#FF6B6B" clip-path="url(#plotClip)"/>
  <circle cx="240.39" cy="158.30" r="8.00" fill="#FF6B6B" clip-path="url(#plotClip)"/>
  <circle cx="30.47" cy="335.64" r="8.00" fill="#FF6B6B" clip-path="url(#plotClip)"/>
  <circle cx="116.45" cy="362.26" r="8.00" fill="#FF6B6B" clip-path="url(#plotClip)"/>
  <circle cx="202.25" cy="261.41" r="8.00" fill="#FF6B6B" clip-path="url(#plotClip)"/>
  <circle cx="148.32" cy="349.74" r="8.00" fill="#FF6B6B" clip-path="url(#plotClip)"/>
  <circle cx="368.72" cy="103.53" r="8.00" fill="#FF6B6B" clip-path="url(#plotClip)"/>
  <circle cx="169.25" cy="206.34" r="8.00" fill="#FF6B6B" clip-path="url(#plotClip)"/>
  <circle cx="213.35" cy="347.56" r="8.00" fill="#FF6B6B" clip-path="url(#plotClip)"/>
  <circle cx="105.30" cy="229.31" r="8.00" fill="#FF6B6B" clip-path="url(#plotClip)"/>
  <circle cx="201.75" cy="357.01" r="8.00" fill="#FF6B6B" clip-path="url(#plotClip)"/>
  <circle cx="176.96" cy="184.50" r="8.00" fill="#FF6B6B" clip-path="url(#plotClip)"/>
  <circle cx="379.12" cy="147.57" r="8.00" fill="#FF6B6B" clip-path="url(#plotClip)"/>
  <circle cx="106.21" cy="283.46" r="8.00" fill="#FF6B6B" clip-path="url(#plotClip)"/>
  <circle cx="244.19" cy="177.29" r="8.00" fill="#FF6B6B" clip-path="url(#plotClip)"/>
  <circle cx="215.99" cy="120.23" r="8.00" fill="#FF6B6B" clip-path="url(#plotClip)"/>
  <circle cx="130.48" cy="73.32" r="8.00" fill="#FF6B6B" clip-path="url(#plotClip)"/>
  <circle cx="11.52" cy="115.81" r="8.00" fill="#FF6B6B" clip-path="url(#plotClip)"/>
  <circle cx="70.39" cy="168.03" r="8.00" fill="#FF6B6B" clip-path="url(#plotClip)"/>
  <circle cx="84.53" cy="315.12" r="8.00" fill="#FF6B6B" clip-path="url(#plotClip)"/>
  <circle cx="380.21" cy="57.90" r="8.00" fill="#FF6B6B" clip-path="url(#plotClip)"/>
  <circle cx="240.05" cy="65.14" r="8.00" fill="#FF6B6B" clip-path="url(#plotClip)"/>
  <circle cx="204.77" cy="126.22" r="8.00" fill="#FF6B6B" clip-path="url(#plotClip)"/>
  <circle cx="173.01" cy="374.43" r="8.00" fill="#FF6B6B" clip-path="url(#plotClip)"/>
  <circle cx="19.38" cy="285.64" r="8.00" fill="#FF6B6B" clip-path="url(#plotClip)"/>
  <circle cx="97.32" cy="213.16" r="8.00" fill="#FF6B6B" clip-path="url(#plotClip)"/>
  <circle cx="23.68" cy="299.77" r="8.00" fill="#FF6B6B" clip-path="url(#plotClip)"/>
  <circle cx="213.52" cy="259.36" r="8.00" fill="#FF6B6B" clip-path="url(#plotClip)"/>
  <circle cx="137.06" cy="332.90" r="8.00" fill="#FF6B6B" clip-path="url(#plotClip)"/>
  </g>
</svg>
