<?xml version="1.0" encoding="UTF-8"?>
<svg xmlns="http://www.w3.org/2000/svg" width="800" height="600" viewBox="0 0 800 600">
  <defs>
    <clipPath id="plotClip">
      <rect x="0" y="0" width="800" height="600"/>
    </clipPath>
  </defs>
  <rect width="800" height="600" fill="#FFFFFF"/>
  <text x="400" y="21" font-size="16" text-anchor="middle">Scatter Plot Marker Styles Demonstration</text>
  <circle cx="80.00" cy="60.00" r="5.00" fill="#FF0000" clip-path="url(#plotClip)"/>
  <circle cx="160.00" cy="60.00" r="5.00" fill="#FF0000" clip-path="url(#plotClip)"/>
  <circle cx="240.00" cy="60.00" r="5.00" fill="#FF0000" clip-path="url(#plotClip)"/>
  <rect x="75.00" y="115.00" width="10.00" height="10.00" fill="#0000FF" clip-path="url(#plotClip)"/>
  <rect x="155.00" y="115.00" width="10.00" height="10.00" fill="#0000FF" clip-path="url(#plotClip)"/>
  <rect x="235.00" y="115.00" width="10.00" height="10.00" fill="#0000FF" clip-path="url(#plotClip)"/>
  <polygon points="80.00,174.22 75.00,182.88 85.00,182.88" fill="#00FF00" clip-path="url(#plotClip)"/>
  <polygon points="160.00,174.22 155.00,182.88 165.00,182.88" fill="#00FF00" clip-path="url(#plotClip)"/>
  <polygon points="240.00,174.22 235.00,182.88 245.00,182.88" fill="#00FF00" clip-path="url(#plotClip)"/>
  <polygon points="80.00,245.78 75.00,237.12 85.00,237.12" fill="#FFA500" clip-path="url(#plotClip)"/>
  <polygon points="160.00,245.78 155.00,237.12 165.00,237.12" fill="#FFA500" clip-path="url(#plotClip)"/>
  <polygon points="240.00,245.78 235.00,237.12 245.00,237.12" fill="#FFA500" clip-path="url(#plotClip)"/>
  <polygon points="80.00,295.00 85.00,300.00 80.00,305.00 75.00,300.00" fill="#FF00FF" clip-path="url(#plotClip)"/>
  <polygon points="160.00,295.00 165.00,300.00 160.00,305.00 155.00,300.00" fill="#FF00FF" clip-path="url(#plotClip)"/>
  <polygon points="240.00,295.00 245.00,300.00 240.00,305.00 235.00,300.00" fill="#FF00FF" clip-path="url(#plotClip)"/>
  <path d="M 80.00 355.00 L 80.00 365.00 M 75.00 360.00 L 85.00 360.00" stroke="#00FFFF" stroke-width="2" stroke-linecap="round" clip-path="url(#plotClip)"/>
  <path d="M 160.00 355.00 L 160.00 365.00 M 155.00 360.00 L 165.00 360.00" stroke="#00FFFF" stroke-width="2" stroke-linecap="round" clip-path="url(#plotClip)"/>
  <path d="M 240.00 355.00 L 240.00 365.00 M 235.00 360.00 L 245.00 360.00" stroke="#00FFFF" stroke-width="2" stroke-linecap="round" clip-path="url(#plotClip)"/>
  <path d="M 76.47 416.47 L 83.54 423.54 M 76.47 423.54 L 83.54 416.47" stroke="#8B4513" stroke-width="2" stroke-linecap="round" clip-path="url(#plotClip)"/>
  <path d="M 156.47 416.47 L 163.54 423.54 M 156.47 423.54 L 163.54 416.47" stroke="#8B4513" stroke-width="2" stroke-linecap="round" clip-path="url(#plotClip)"/>
  <path d="M 236.47 416.47 L 243.54 423.54 M 236.47 423.54 L 243.54 416.47" stroke="#8B4513" stroke-width="2" stroke-linecap="round" clip-path="url(#plotClip)"/>
  <polygon points="80.00,475.00 81.18,478.38 84.76,478.45 81.90,480.62 82.94,484.05 80.00,482.00 77.06,484.05 78.10,480.62 75.24,478.45 78.82,478.38" fill="#FFD700" clip-path="url(#plotClip)"/>
  <polygon points="160.00,475.00 161.18,478.38 164.76,478.45 161.90,480.62 162.94,484.05 160.00,482.00 157.06,484.05 158.10,480.62 155.24,478.45 158.82,478.38" fill="#FFD700" clip-path="url(#plotClip)"/>
  <polygon points="240.00,475.00 241.18,478.38 244.76,478.45 241.90,480.62 242.94,484.05 240.00,482.00 237.06,484.05 238.10,480.62 235.24,478.45 238.82,478.38" fill="#FFD700" clip-path="url(#plotClip)"/>
  <polygon points="85.00,540.00 82.50,544.33 77.50,544.33 75.00,540.00 77.50,535.67 82.50,535.67" fill="#9370DB" clip-path="url(#plotClip)"/>
  <polygon points="165.00,540.00 162.50,544.33 157.50,544.33 155.00,540.00 157.50,535.67 162.50,535.67" fill="#9370DB" clip-path="url(#plotClip)"/>
  <polygon points="245.00,540.00 242.50,544.33 237.50,544.33 235.00,540.00 237.50,535.67 242.50,535.67" fill="#9370DB" clip-path="url(#plotClip)"/>
  <polygon points="80.00,583.00 84.76,586.45 82.94,592.05 77.06,592.05 75.24,586.45" fill="#20B2AA" clip-path="url(#plotClip)"/>
  <polygon points="160.00,583.00 164.76,586.45 162.94,592.05 157.06,592.05 155.24,586.45" fill="#20B2AA" clip-path="url(#plotClip)"/>
  <polygon points="240.00,583.00 244.76,586.45 242.94,592.05 237.06,592.05 235.24,586.45" fill="#20B2AA" clip-path="url(#plotClip)"/>
  <circle cx="400.00" cy="300.00" r="2.00" fill="#FF1493" clip-path="url(#plotClip)"/>
  <circle cx="440.00" cy="300.00" r="2.75" fill="#FF1493" clip-path="url(#plotClip)"/>
  <circle cx="480.00" cy="300.00" r="3.50" fill="#FF1493" clip-path="url(#plotClip)"/>
  <circle cx="520.00" cy="300.00" r="4.25" fill="#FF1493" clip-path="url(#plotClip)"/>
  <circle cx="560.00" cy="300.00" r="5.00" fill="#FF1493" clip-path="url(#plotClip)"/>
  <circle cx="600.00" cy="300.00" r="5.75" fill="#FF1493" clip-path="url(#plotClip)"/>
  <circle cx="640.00" cy="300.00" r="6.50" fill="#FF1493" clip-path="url(#plotClip)"/>
  <circle cx="680.00" cy="300.00" r="7.25" fill="#FF1493" clip-path="url(#plotClip)"/>
  <circle cx="720.00" cy="300.00" r="8.00" fill="#FF1493" clip-path="url(#plotClip)"/>
  <circle cx="400.00" cy="120.00" r="4.00" fill="#FF0000" clip-path="url(#plotClip)"/>
  <circle cx="480.00" cy="120.00" r="4.00" fill="#FF0000" clip-path="url(#plotClip)"/>
  <circle cx="560.00" cy="120.00" r="4.00" fill="#FF0000" clip-path="url(#plotClip)"/>
  <circle cx="400.00" cy="180.00" r="4.00" fill="none" stroke="#FF0000" stroke-width="1.5" clip-path="url(#plotClip)"/>
  <circle cx="480.00" cy="180.00" r="4.00" fill="none" stroke="#FF0000" stroke-width="1.5" clip-path="url(#plotClip)"/>
  <circle cx="560.00" cy="180.00" r="4.00" fill="none" stroke="#FF0000" stroke-width="1.5" clip-path="url(#plotClip)"/>
</svg>
