<?xml version="1.0" encoding="UTF-8"?>
<svg xmlns="http://www.w3.org/2000/svg" width="800" height="600" viewBox="0 0 800 600">
  <defs>
    <clipPath id="plotClip">
      <rect x="0" y="0" width="800" height="600"/>
    </clipPath>
  </defs>
  <rect width="800" height="600" fill="#FFFFFF"/>
  <polyline points="0.00 NaN 8.08 NaN 16.16 NaN 24.24 NaN 32.32 NaN 40.40 NaN 48.48 NaN 56.57 NaN 64.65 NaN 72.73 NaN 80.81 NaN 88.89 NaN 96.97 NaN 105.05 NaN 113.13 NaN 121.21 NaN 129.29 NaN 137.37 NaN 145.45 NaN 153.54 NaN 161.62 NaN 169.70 NaN 177.78 NaN 185.86 NaN 193.94 NaN 202.02 NaN 210.10 NaN 218.18 NaN 226.26 NaN 234.34 NaN 242.42 NaN 250.51 NaN 258.59 NaN 266.67 NaN 274.75 NaN 282.83 NaN 290.91 NaN 298.99 NaN 307.07 NaN 315.15 NaN 323.23 NaN 331.31 NaN 339.39 NaN 347.47 NaN 355.56 NaN 363.64 NaN 371.72 NaN 379.80 NaN 387.88 NaN 395.96 NaN 404.04 NaN 412.12 NaN 420.20 NaN 428.28 NaN 436.36 NaN 444.44 NaN 452.53 NaN 460.61 NaN 468.69 NaN 476.77 NaN 484.85 NaN 492.93 NaN 501.01 NaN 509.09 NaN 517.17 NaN 525.25 NaN 533.33 NaN 541.41 NaN 549.49 NaN 557.58 NaN 565.66 NaN 573.74 NaN 581.82 NaN 589.90 NaN 597.98 NaN 606.06 NaN 614.14 NaN 622.22 NaN 630.30 NaN 638.38 NaN 646.46 NaN 654.55 NaN 662.63 NaN 670.71 NaN 678.79 NaN 686.87 NaN 694.95 NaN 703.03 NaN 711.11 NaN 719.19 NaN 727.27 NaN 735.35 NaN 743.43 NaN 751.52 NaN 759.60 NaN 767.68 NaN 775.76 NaN 783.84 NaN 791.92 NaN 800.00 NaN" fill="none" stroke="#000000" stroke-width="1.0" stroke-linecap="round" stroke-linejoin="round" clip-path="url(#plotClip)"/>
</svg>
