<?xml version="1.0" encoding="UTF-8"?>
<svg xmlns="http://www.w3.org/2000/svg" xmlns:xlink="http://www.w3.org/1999/xlink" width="800" height="600" viewBox="0 0 800 600">
  <defs>
    <clipPath id="plotClip">
      <rect x="0" y="0" width="800" height="600"/>
    </clipPath>

    <!-- Point marker definitions (matching C Gnuplot) -->
    <circle id='gpDot' r='0.5' stroke-width='0.5' stroke='currentColor'/>
    <path id='gpPt0' stroke-width='0.222' stroke='currentColor' d='M-1,0 h2 M0,-1 v2'/>
    <path id='gpPt1' stroke-width='0.222' stroke='currentColor' d='M-1,-1 L1,1 M1,-1 L-1,1'/>
    <path id='gpPt2' stroke-width='0.222' stroke='currentColor' d='M-1,0 L1,0 M0,-1 L0,1 M-1,-1 L1,1 M-1,1 L1,-1'/>
    <rect id='gpPt3' stroke-width='0.222' stroke='currentColor' x='-1' y='-1' width='2' height='2'/>
    <rect id='gpPt4' stroke-width='0.222' stroke='currentColor' fill='currentColor' x='-1' y='-1' width='2' height='2'/>
    <circle id='gpPt5' stroke-width='0.222' stroke='currentColor' cx='0' cy='0' r='1'/>
    <use xlink:href='#gpPt5' id='gpPt6' fill='currentColor' stroke='none'/>
    <path id='gpPt7' stroke-width='0.222' stroke='currentColor' d='M0,-1.33 L-1.33,0.67 L1.33,0.67 z'/>
    <use xlink:href='#gpPt7' id='gpPt8' fill='currentColor' stroke='none'/>
    <use xlink:href='#gpPt7' id='gpPt9' stroke='currentColor' transform='rotate(180)'/>
    <use xlink:href='#gpPt9' id='gpPt10' fill='currentColor' stroke='none'/>
    <use xlink:href='#gpPt3' id='gpPt11' stroke='currentColor' transform='rotate(45)'/>
    <use xlink:href='#gpPt11' id='gpPt12' fill='currentColor' stroke='none'/>
    <path id='gpPt13' stroke-width='0.222' stroke='currentColor' d='M0,1.330 L1.265,0.411 L0.782,-1.067 L-0.782,-1.076 L-1.265,0.411 z'/>
    <use xlink:href='#gpPt13' id='gpPt14' fill='currentColor' stroke='none'/>
  </defs>
  <rect width="800" height="600" fill="#FFFFFF"/>
  <text x="400" y="25" font-size="20" text-anchor="middle">Plot 2</text>
  <line x1="54" y1="564.00" x2="775" y2="564.00" stroke="#000" stroke-width="1"/>
  <line x1="54.00" y1="564.00" x2="54.00" y2="570.00" stroke="#000" stroke-width="1"/>
  <line x1="54.00" y1="66.00" x2="54.00" y2="72.00" stroke="#000" stroke-width="1"/>
  <text x="54.00" y="582.00" text-anchor="middle" font-size="12">-10</text>
  <line x1="234.25" y1="564.00" x2="234.25" y2="570.00" stroke="#000" stroke-width="1"/>
  <line x1="234.25" y1="66.00" x2="234.25" y2="72.00" stroke="#000" stroke-width="1"/>
  <text x="234.25" y="582.00" text-anchor="middle" font-size="12">-5</text>
  <line x1="414.50" y1="564.00" x2="414.50" y2="570.00" stroke="#000" stroke-width="1"/>
  <line x1="414.50" y1="66.00" x2="414.50" y2="72.00" stroke="#000" stroke-width="1"/>
  <text x="414.50" y="582.00" text-anchor="middle" font-size="12">0</text>
  <line x1="594.75" y1="564.00" x2="594.75" y2="570.00" stroke="#000" stroke-width="1"/>
  <line x1="594.75" y1="66.00" x2="594.75" y2="72.00" stroke="#000" stroke-width="1"/>
  <text x="594.75" y="582.00" text-anchor="middle" font-size="12">5</text>
  <line x1="775.00" y1="564.00" x2="775.00" y2="570.00" stroke="#000" stroke-width="1"/>
  <line x1="775.00" y1="66.00" x2="775.00" y2="72.00" stroke="#000" stroke-width="1"/>
  <text x="775.00" y="582.00" text-anchor="middle" font-size="12">10</text>
  <line x1="54.00" y1="66" x2="54.00" y2="564" stroke="#000" stroke-width="1"/>
  <line x1="54.00" y1="554.44" x2="48.00" y2="554.44" stroke="#000" stroke-width="1"/>
  <line x1="775.00" y1="554.44" x2="769.00" y2="554.44" stroke="#000" stroke-width="1"/>
  <text x="44.00" y="558.44" text-anchor="end" font-size="12">-1</text>
  <line x1="54.00" y1="434.53" x2="48.00" y2="434.53" stroke="#000" stroke-width="1"/>
  <line x1="775.00" y1="434.53" x2="769.00" y2="434.53" stroke="#000" stroke-width="1"/>
  <text x="44.00" y="438.53" text-anchor="end" font-size="12">-0.5</text>
  <line x1="54.00" y1="314.62" x2="48.00" y2="314.62" stroke="#000" stroke-width="1"/>
  <line x1="775.00" y1="314.62" x2="769.00" y2="314.62" stroke="#000" stroke-width="1"/>
  <text x="44.00" y="318.62" text-anchor="end" font-size="12">0</text>
  <line x1="54.00" y1="194.71" x2="48.00" y2="194.71" stroke="#000" stroke-width="1"/>
  <line x1="775.00" y1="194.71" x2="769.00" y2="194.71" stroke="#000" stroke-width="1"/>
  <text x="44.00" y="198.71" text-anchor="end" font-size="12">0.5</text>
  <line x1="54.00" y1="74.80" x2="48.00" y2="74.80" stroke="#000" stroke-width="1"/>
  <line x1="775.00" y1="74.80" x2="769.00" y2="74.80" stroke="#000" stroke-width="1"/>
  <text x="44.00" y="78.80" text-anchor="end" font-size="12">1</text>
  <polyline points="54.00 515.84 61.28 537.93 68.57 550.93 75.85 554.32 83.13 547.96 90.41 532.11 97.70 507.42 104.98 474.88 112.26 435.82 119.55 391.84 126.83 344.71 134.11 296.36 141.39 248.75 148.68 203.82 155.96 163.40 163.24 129.13 170.53 102.40 177.81 84.31 185.09 75.58 192.37 76.57 199.66 87.25 206.94 107.17 214.22 135.53 221.51 171.18 228.79 212.66 236.07 258.29 243.35 306.21 250.64 354.47 257.92 401.11 265.20 444.23 272.48 482.08 279.77 513.12 287.05 536.08 294.33 550.04 301.62 554.42 308.90 549.05 316.18 534.14 323.46 510.31 330.75 478.51 338.03 440.05 345.31 396.49 352.60 349.60 359.88 301.28 367.16 253.51 374.44 208.22 381.73 167.26 389.01 132.29 396.29 104.74 403.58 85.73 410.86 76.02 418.14 76.02 425.42 85.73 432.71 104.74 439.99 132.29 447.27 167.26 454.56 208.22 461.84 253.51 469.12 301.28 476.40 349.60 483.69 396.49 490.97 440.05 498.25 478.51 505.54 510.31 512.82 534.14 520.10 549.05 527.38 554.42 534.67 550.04 541.95 536.08 549.23 513.12 556.52 482.08 563.80 444.23 571.08 401.11 578.36 354.47 585.65 306.21 592.93 258.29 600.21 212.66 607.49 171.18 614.78 135.53 622.06 107.17 629.34 87.25 636.63 76.57 643.91 75.58 651.19 84.31 658.47 102.40 665.76 129.13 673.04 163.40 680.32 203.82 687.61 248.75 694.89 296.36 702.17 344.71 709.45 391.84 716.74 435.82 724.02 474.88 731.30 507.42 738.59 532.11 745.87 547.96 753.15 554.32 760.43 550.93 767.72 537.93 775.00 515.84" fill="none" stroke="#9400D3" stroke-width="1.0" stroke-linecap="round" stroke-linejoin="round" clip-path="url(#plotClip)"/>
  <rect x="59" y="71" width="108" height="38" fill="#FFFFFF" stroke="#000000" stroke-width="1"/>
  <text x="112" y="93" font-family="Arial" font-size="12" alignment-baseline="middle" text-anchor="end">cos(x)</text>
  <line x1="122" y1="90" x2="147" y2="90" stroke="#9400D3" stroke-width="2"/>
  <path d="M 54.00 66.00 L 775.00 66.00 L 775.00 564.00 L 54.00 564.00 Z" stroke="#000000" stroke-width="1.0" fill="none"/>
</svg>
