<?xml version="1.0" encoding="UTF-8"?>
<svg xmlns="http://www.w3.org/2000/svg" xmlns:xlink="http://www.w3.org/1999/xlink" width="800" height="600" viewBox="0 0 800 600">
  <defs>
    <clipPath id="plotClip">
      <rect x="0" y="0" width="800" height="600"/>
    </clipPath>

    <!-- Point marker definitions (matching C Gnuplot) -->
    <circle id='gpDot' r='0.5' stroke-width='0.5' stroke='currentColor'/>
    <path id='gpPt0' stroke-width='0.222' stroke='currentColor' d='M-1,0 h2 M0,-1 v2'/>
    <path id='gpPt1' stroke-width='0.222' stroke='currentColor' d='M-1,-1 L1,1 M1,-1 L-1,1'/>
    <path id='gpPt2' stroke-width='0.222' stroke='currentColor' d='M-1,0 L1,0 M0,-1 L0,1 M-1,-1 L1,1 M-1,1 L1,-1'/>
    <rect id='gpPt3' stroke-width='0.222' stroke='currentColor' x='-1' y='-1' width='2' height='2'/>
    <rect id='gpPt4' stroke-width='0.222' stroke='currentColor' fill='currentColor' x='-1' y='-1' width='2' height='2'/>
    <circle id='gpPt5' stroke-width='0.222' stroke='currentColor' cx='0' cy='0' r='1'/>
    <use xlink:href='#gpPt5' id='gpPt6' fill='currentColor' stroke='none'/>
    <path id='gpPt7' stroke-width='0.222' stroke='currentColor' d='M0,-1.33 L-1.33,0.67 L1.33,0.67 z'/>
    <use xlink:href='#gpPt7' id='gpPt8' fill='currentColor' stroke='none'/>
    <use xlink:href='#gpPt7' id='gpPt9' stroke='currentColor' transform='rotate(180)'/>
    <use xlink:href='#gpPt9' id='gpPt10' fill='currentColor' stroke='none'/>
    <use xlink:href='#gpPt3' id='gpPt11' stroke='currentColor' transform='rotate(45)'/>
    <use xlink:href='#gpPt11' id='gpPt12' fill='currentColor' stroke='none'/>
    <path id='gpPt13' stroke-width='0.222' stroke='currentColor' d='M0,1.330 L1.265,0.411 L0.782,-1.067 L-0.782,-1.076 L-1.265,0.411 z'/>
    <use xlink:href='#gpPt13' id='gpPt14' fill='currentColor' stroke='none'/>
  </defs>
  <rect width="800" height="600" fill="#FFFFFF"/>
  <text x="400" y="25" font-size="20" text-anchor="middle">Plot 3</text>
  <line x1="54" y1="564.00" x2="775" y2="564.00" stroke="#000" stroke-width="1"/>
  <line x1="54.00" y1="564.00" x2="54.00" y2="570.00" stroke="#000" stroke-width="1"/>
  <line x1="54.00" y1="66.00" x2="54.00" y2="72.00" stroke="#000" stroke-width="1"/>
  <text x="54.00" y="582.00" text-anchor="middle" font-size="12">-10</text>
  <line x1="234.25" y1="564.00" x2="234.25" y2="570.00" stroke="#000" stroke-width="1"/>
  <line x1="234.25" y1="66.00" x2="234.25" y2="72.00" stroke="#000" stroke-width="1"/>
  <text x="234.25" y="582.00" text-anchor="middle" font-size="12">-5</text>
  <line x1="414.50" y1="564.00" x2="414.50" y2="570.00" stroke="#000" stroke-width="1"/>
  <line x1="414.50" y1="66.00" x2="414.50" y2="72.00" stroke="#000" stroke-width="1"/>
  <text x="414.50" y="582.00" text-anchor="middle" font-size="12">0</text>
  <line x1="594.75" y1="564.00" x2="594.75" y2="570.00" stroke="#000" stroke-width="1"/>
  <line x1="594.75" y1="66.00" x2="594.75" y2="72.00" stroke="#000" stroke-width="1"/>
  <text x="594.75" y="582.00" text-anchor="middle" font-size="12">5</text>
  <line x1="775.00" y1="564.00" x2="775.00" y2="570.00" stroke="#000" stroke-width="1"/>
  <line x1="775.00" y1="66.00" x2="775.00" y2="72.00" stroke="#000" stroke-width="1"/>
  <text x="775.00" y="582.00" text-anchor="middle" font-size="12">10</text>
  <line x1="54.00" y1="66" x2="54.00" y2="564" stroke="#000" stroke-width="1"/>
  <line x1="54.00" y1="483.08" x2="48.00" y2="483.08" stroke="#000" stroke-width="1"/>
  <line x1="775.00" y1="483.08" x2="769.00" y2="483.08" stroke="#000" stroke-width="1"/>
  <text x="44.00" y="487.08" text-anchor="end" font-size="12">-20</text>
  <line x1="54.00" y1="399.04" x2="48.00" y2="399.04" stroke="#000" stroke-width="1"/>
  <line x1="775.00" y1="399.04" x2="769.00" y2="399.04" stroke="#000" stroke-width="1"/>
  <text x="44.00" y="403.04" text-anchor="end" font-size="12">-10</text>
  <line x1="54.00" y1="315.00" x2="48.00" y2="315.00" stroke="#000" stroke-width="1"/>
  <line x1="775.00" y1="315.00" x2="769.00" y2="315.00" stroke="#000" stroke-width="1"/>
  <text x="44.00" y="319.00" text-anchor="end" font-size="12">0</text>
  <line x1="54.00" y1="230.96" x2="48.00" y2="230.96" stroke="#000" stroke-width="1"/>
  <line x1="775.00" y1="230.96" x2="769.00" y2="230.96" stroke="#000" stroke-width="1"/>
  <text x="44.00" y="234.96" text-anchor="end" font-size="12">10</text>
  <line x1="54.00" y1="146.92" x2="48.00" y2="146.92" stroke="#000" stroke-width="1"/>
  <line x1="775.00" y1="146.92" x2="769.00" y2="146.92" stroke="#000" stroke-width="1"/>
  <text x="44.00" y="150.92" text-anchor="end" font-size="12">20</text>
  <polyline points="54.00 320.45 61.28 318.29 68.57 316.45 75.85 314.74 83.13 313.01 90.41 311.10 97.70 308.78 104.98 305.64 112.26 300.65 119.55 290.29 126.83 248.56 134.11 425.07 141.39 344.42 148.68 331.13 155.96 325.34 163.24 321.89 170.53 319.42 177.81 317.44 185.09 315.68 192.37 313.97 199.66 312.18 206.94 310.13 214.22 307.52 221.51 303.74 228.79 297.11 236.07 280.22 243.35 75.58 250.64 364.87 257.92 336.73 265.20 328.08 272.48 323.61 279.77 320.70 287.05 318.49 294.33 316.63 301.62 314.91 308.90 313.19 316.18 311.30 323.46 309.05 330.75 306.02 338.03 301.31 345.31 291.86 352.60 258.00 359.88 465.87 367.16 346.89 374.44 331.98 381.73 325.79 389.01 322.18 396.29 319.65 403.58 317.63 410.86 315.85 418.14 314.15 425.42 312.37 432.71 310.35 439.99 307.82 447.27 304.21 454.56 298.02 461.84 283.11 469.12 164.13 476.40 372.00 483.69 338.14 490.97 328.69 498.25 323.98 505.54 320.95 512.82 318.70 520.10 316.81 527.38 315.09 534.67 313.37 541.95 311.51 549.23 309.30 556.52 306.39 563.80 301.92 571.08 293.27 578.36 265.13 585.65 554.42 592.93 349.78 600.21 332.89 607.49 326.26 614.78 322.48 622.06 319.87 629.34 317.82 636.63 316.03 643.91 314.32 651.19 312.56 658.47 310.58 665.76 308.11 673.04 304.66 680.32 298.87 687.61 285.58 694.89 204.93 702.17 381.44 709.45 339.71 716.74 329.35 724.02 324.36 731.30 321.22 738.59 318.90 745.87 316.99 753.15 315.26 760.43 313.55 767.72 311.71 775.00 309.55" fill="none" stroke="#9400D3" stroke-width="1.0" stroke-linecap="round" stroke-linejoin="round" clip-path="url(#plotClip)"/>
  <rect x="59" y="71" width="108" height="38" fill="#FFFFFF" stroke="#000000" stroke-width="1"/>
  <text x="112" y="93" font-family="Arial" font-size="12" alignment-baseline="middle" text-anchor="end">tan(x)</text>
  <line x1="122" y1="90" x2="147" y2="90" stroke="#9400D3" stroke-width="2"/>
  <path d="M 54.00 66.00 L 775.00 66.00 L 775.00 564.00 L 54.00 564.00 Z" stroke="#000000" stroke-width="1.0" fill="none"/>
</svg>
