<?xml version="1.0" encoding="UTF-8"?>
<svg xmlns="http://www.w3.org/2000/svg" xmlns:xlink="http://www.w3.org/1999/xlink" width="800" height="600" viewBox="0 0 800 600">
  <defs>
    <clipPath id="plotClip">
      <rect x="54" y="66" width="721" height="498"/>
    </clipPath>

    <!-- Point marker definitions (matching C Gnuplot) -->
    <circle id='gpDot' r='0.5' stroke-width='0.5' stroke='currentColor'/>
    <path id='gpPt0' stroke-width='0.222' stroke='currentColor' d='M-1,0 h2 M0,-1 v2'/>
    <path id='gpPt1' stroke-width='0.222' stroke='currentColor' d='M-1,-1 L1,1 M1,-1 L-1,1'/>
    <path id='gpPt2' stroke-width='0.222' stroke='currentColor' d='M-1,0 L1,0 M0,-1 L0,1 M-1,-1 L1,1 M-1,1 L1,-1'/>
    <rect id='gpPt3' stroke-width='0.222' stroke='currentColor' x='-1' y='-1' width='2' height='2'/>
    <rect id='gpPt4' stroke-width='0.222' stroke='currentColor' fill='currentColor' x='-1' y='-1' width='2' height='2'/>
    <circle id='gpPt5' stroke-width='0.222' stroke='currentColor' cx='0' cy='0' r='1'/>
    <use xlink:href='#gpPt5' id='gpPt6' fill='currentColor' stroke='none'/>
    <path id='gpPt7' stroke-width='0.222' stroke='currentColor' d='M0,-1.33 L-1.33,0.67 L1.33,0.67 z'/>
    <use xlink:href='#gpPt7' id='gpPt8' fill='currentColor' stroke='none'/>
    <use xlink:href='#gpPt7' id='gpPt9' stroke='currentColor' transform='rotate(180)'/>
    <use xlink:href='#gpPt9' id='gpPt10' fill='currentColor' stroke='none'/>
    <use xlink:href='#gpPt3' id='gpPt11' stroke='currentColor' transform='rotate(45)'/>
    <use xlink:href='#gpPt11' id='gpPt12' fill='currentColor' stroke='none'/>
    <path id='gpPt13' stroke-width='0.222' stroke='currentColor' d='M0,1.330 L1.265,0.411 L0.782,-1.067 L-0.782,-1.076 L-1.265,0.411 z'/>
    <use xlink:href='#gpPt13' id='gpPt14' fill='currentColor' stroke='none'/>
  </defs>
  <rect width="800" height="600" fill="#FFFFFF"/>
  <text x="400" y="25" font-size="20" text-anchor="middle">Plot 2</text>
  <line x1="54" y1="564.00" x2="775" y2="564.00" stroke="#000" stroke-width="1"/>
  <line x1="54.00" y1="564.00" x2="54.00" y2="558.00" stroke="#000" stroke-width="1"/>
  <line x1="54.00" y1="66.00" x2="54.00" y2="72.00" stroke="#000" stroke-width="1"/>
  <text x="54.00" y="582.00" text-anchor="middle" font-size="12">-10</text>
  <line x1="234.25" y1="564.00" x2="234.25" y2="558.00" stroke="#000" stroke-width="1"/>
  <line x1="234.25" y1="66.00" x2="234.25" y2="72.00" stroke="#000" stroke-width="1"/>
  <text x="234.25" y="582.00" text-anchor="middle" font-size="12">-5</text>
  <line x1="414.50" y1="564.00" x2="414.50" y2="558.00" stroke="#000" stroke-width="1"/>
  <line x1="414.50" y1="66.00" x2="414.50" y2="72.00" stroke="#000" stroke-width="1"/>
  <text x="414.50" y="582.00" text-anchor="middle" font-size="12">0</text>
  <line x1="594.75" y1="564.00" x2="594.75" y2="558.00" stroke="#000" stroke-width="1"/>
  <line x1="594.75" y1="66.00" x2="594.75" y2="72.00" stroke="#000" stroke-width="1"/>
  <text x="594.75" y="582.00" text-anchor="middle" font-size="12">5</text>
  <line x1="775.00" y1="564.00" x2="775.00" y2="558.00" stroke="#000" stroke-width="1"/>
  <line x1="775.00" y1="66.00" x2="775.00" y2="72.00" stroke="#000" stroke-width="1"/>
  <text x="775.00" y="582.00" text-anchor="middle" font-size="12">10</text>
  <line x1="54.00" y1="66" x2="54.00" y2="564" stroke="#000" stroke-width="1"/>
  <line x1="54.00" y1="564.00" x2="60.00" y2="564.00" stroke="#000" stroke-width="1"/>
  <line x1="775.00" y1="564.00" x2="769.00" y2="564.00" stroke="#000" stroke-width="1"/>
  <text x="44.00" y="568.00" text-anchor="end" font-size="12">-1</text>
  <line x1="54.00" y1="439.50" x2="60.00" y2="439.50" stroke="#000" stroke-width="1"/>
  <line x1="775.00" y1="439.50" x2="769.00" y2="439.50" stroke="#000" stroke-width="1"/>
  <text x="44.00" y="443.50" text-anchor="end" font-size="12">-0.5</text>
  <line x1="54.00" y1="315.00" x2="60.00" y2="315.00" stroke="#000" stroke-width="1"/>
  <line x1="775.00" y1="315.00" x2="769.00" y2="315.00" stroke="#000" stroke-width="1"/>
  <text x="44.00" y="319.00" text-anchor="end" font-size="12">0</text>
  <line x1="54.00" y1="190.50" x2="60.00" y2="190.50" stroke="#000" stroke-width="1"/>
  <line x1="775.00" y1="190.50" x2="769.00" y2="190.50" stroke="#000" stroke-width="1"/>
  <text x="44.00" y="194.50" text-anchor="end" font-size="12">0.5</text>
  <line x1="54.00" y1="66.00" x2="60.00" y2="66.00" stroke="#000" stroke-width="1"/>
  <line x1="775.00" y1="66.00" x2="769.00" y2="66.00" stroke="#000" stroke-width="1"/>
  <text x="44.00" y="70.00" text-anchor="end" font-size="12">1</text>
  <polyline points="54.00 523.93 61.28 546.86 68.57 560.36 75.85 563.88 83.13 557.28 90.41 540.82 97.70 515.18 104.98 481.40 112.26 440.85 119.55 395.18 126.83 346.25 134.11 296.04 141.39 246.61 148.68 199.96 155.96 157.99 163.24 122.41 170.53 94.66 177.81 75.87 185.09 66.81 192.37 67.84 199.66 78.92 206.94 99.61 214.22 129.06 221.51 166.07 228.79 209.14 236.07 256.51 243.35 306.27 250.64 356.37 257.92 404.80 265.20 449.57 272.48 488.87 279.77 521.10 287.05 544.94 294.33 559.44 301.62 563.99 308.90 558.41 316.18 542.93 323.46 518.18 330.75 485.17 338.03 445.24 345.31 400.01 352.60 351.32 359.88 301.15 367.16 251.55 374.44 204.53 381.73 162.00 389.01 125.69 396.29 97.09 403.58 77.35 410.86 67.27 418.14 67.27 425.42 77.35 432.71 97.09 439.99 125.69 447.27 162.00 454.56 204.53 461.84 251.55 469.12 301.15 476.40 351.32 483.69 400.01 490.97 445.24 498.25 485.17 505.54 518.18 512.82 542.93 520.10 558.41 527.38 563.99 534.67 559.44 541.95 544.94 549.23 521.10 556.52 488.87 563.80 449.57 571.08 404.80 578.36 356.37 585.65 306.27 592.93 256.51 600.21 209.14 607.49 166.07 614.78 129.06 622.06 99.61 629.34 78.92 636.63 67.84 643.91 66.81 651.19 75.87 658.47 94.66 665.76 122.41 673.04 157.99 680.32 199.96 687.61 246.61 694.89 296.04 702.17 346.25 709.45 395.18 716.74 440.85 724.02 481.40 731.30 515.18 738.59 540.82 745.87 557.28 753.15 563.88 760.43 560.36 767.72 546.86 775.00 523.93" fill="none" stroke="#9400D3" stroke-width="1.0" stroke-linecap="round" stroke-linejoin="round" clip-path="url(#plotClip)"/>
  <rect x="682" y="71" width="88" height="18" fill="#FFFFFF" stroke="#000000" stroke-width="1"/>
  <text x="725" y="83" font-family="Arial" font-size="12" alignment-baseline="middle" text-anchor="end">cos(x)</text>
  <line x1="735" y1="80" x2="760" y2="80" stroke="#9400D3" stroke-width="2"/>
  <path d="M 54.00 66.00 L 775.00 66.00 L 775.00 564.00 L 54.00 564.00 Z" stroke="#000000" stroke-width="1.0" fill="none"/>
</svg>
