<?xml version="1.0" encoding="UTF-8"?>
<svg xmlns="http://www.w3.org/2000/svg" width="800" height="600" viewBox="0 0 800 600">
  <defs>
    <clipPath id="plotClip">
      <rect x="0" y="0" width="800" height="600"/>
    </clipPath>
  </defs>
  <rect width="800" height="600" fill="#FFFFFF"/>
  <text x="400" y="21" font-size="16" text-anchor="middle">Polynomial</text>
  <polyline points="0.00 -2130.00 8.08 -2022.13 16.16 -1916.72 24.24 -1813.75 32.32 -1713.23 40.40 -1615.15 48.48 -1519.53 56.57 -1426.36 64.65 -1335.63 72.73 -1247.36 80.81 -1161.53 88.89 -1078.15 96.97 -997.22 105.05 -918.74 113.13 -842.70 121.21 -769.12 129.29 -697.98 137.37 -629.30 145.45 -563.06 153.54 -499.27 161.62 -437.93 169.70 -379.04 177.78 -322.59 185.86 -268.60 193.94 -217.05 202.02 -167.96 210.10 -121.31 218.18 -77.11 226.26 -35.36 234.34 3.95 242.42 40.80 250.51 75.20 258.59 107.16 266.67 136.67 274.75 163.73 282.83 188.33 290.91 210.50 298.99 230.21 307.07 247.47 315.15 262.29 323.23 274.65 331.31 284.57 339.39 292.04 347.47 297.06 355.56 299.63 363.64 299.75 371.72 297.43 379.80 292.65 387.88 285.43 395.96 275.75 404.04 263.63 412.12 249.06 420.20 232.04 428.28 212.58 436.36 190.66 444.44 166.30 452.53 139.48 460.61 110.22 468.69 78.51 476.77 44.35 484.85 7.74 492.93 -31.32 501.01 -72.82 509.09 -116.78 517.17 -163.18 525.25 -212.03 533.33 -263.33 541.41 -317.08 549.49 -373.28 557.58 -431.93 565.66 -493.02 573.74 -556.57 581.82 -622.56 589.90 -691.00 597.98 -761.89 606.06 -835.23 614.14 -911.02 622.22 -989.26 630.30 -1069.94 638.38 -1153.08 646.46 -1238.66 654.55 -1326.69 662.63 -1417.17 670.71 -1510.10 678.79 -1605.48 686.87 -1703.31 694.95 -1803.58 703.03 -1906.31 711.11 -2011.48 719.19 -2119.10 727.27 -2229.17 735.35 -2341.69 743.43 -2456.66 751.52 -2574.08 759.60 -2693.94 767.68 -2816.26 775.76 -2941.02 783.84 -3068.23 791.92 -3197.89 800.00 -3330.00" fill="none" stroke="#000000" stroke-width="1.0" stroke-linecap="round" stroke-linejoin="round" clip-path="url(#plotClip)"/>
</svg>
