<?xml version="1.0" encoding="UTF-8"?>
<svg xmlns="http://www.w3.org/2000/svg" xmlns:xlink="http://www.w3.org/1999/xlink" width="800" height="600" viewBox="0 0 800 600">
  <defs>
    <clipPath id="plotClip">
      <rect x="54" y="66" width="721" height="498"/>
    </clipPath>

    <!-- Point marker definitions (matching C Gnuplot) -->
    <circle id='gpDot' r='0.5' stroke-width='0.5' stroke='currentColor'/>
    <path id='gpPt0' stroke-width='0.222' stroke='currentColor' d='M-1,0 h2 M0,-1 v2'/>
    <path id='gpPt1' stroke-width='0.222' stroke='currentColor' d='M-1,-1 L1,1 M1,-1 L-1,1'/>
    <path id='gpPt2' stroke-width='0.222' stroke='currentColor' d='M-1,0 L1,0 M0,-1 L0,1 M-1,-1 L1,1 M-1,1 L1,-1'/>
    <rect id='gpPt3' stroke-width='0.222' stroke='currentColor' x='-1' y='-1' width='2' height='2'/>
    <rect id='gpPt4' stroke-width='0.222' stroke='currentColor' fill='currentColor' x='-1' y='-1' width='2' height='2'/>
    <circle id='gpPt5' stroke-width='0.222' stroke='currentColor' cx='0' cy='0' r='1'/>
    <use xlink:href='#gpPt5' id='gpPt6' fill='currentColor' stroke='none'/>
    <path id='gpPt7' stroke-width='0.222' stroke='currentColor' d='M0,-1.33 L-1.33,0.67 L1.33,0.67 z'/>
    <use xlink:href='#gpPt7' id='gpPt8' fill='currentColor' stroke='none'/>
    <use xlink:href='#gpPt7' id='gpPt9' stroke='currentColor' transform='rotate(180)'/>
    <use xlink:href='#gpPt9' id='gpPt10' fill='currentColor' stroke='none'/>
    <use xlink:href='#gpPt3' id='gpPt11' stroke='currentColor' transform='rotate(45)'/>
    <use xlink:href='#gpPt11' id='gpPt12' fill='currentColor' stroke='none'/>
    <path id='gpPt13' stroke-width='0.222' stroke='currentColor' d='M0,1.330 L1.265,0.411 L0.782,-1.067 L-0.782,-1.076 L-1.265,0.411 z'/>
    <use xlink:href='#gpPt13' id='gpPt14' fill='currentColor' stroke='none'/>
  </defs>
  <rect width="800" height="600" fill="#FFFFFF"/>
  <text x="400" y="25" font-size="20" text-anchor="middle">Simple demo of scatter data conversion to grid data</text>
<g clip-path="url(#plotClip)">
  <path d="M-1,-1 L1,1 M1,-1 L-1,1" transform="translate(282.55,476.29) scale(4.50)" stroke="#9400D3" stroke-width="2.000" fill="none"/>
  <path d="M-1,-1 L1,1 M1,-1 L-1,1" transform="translate(278.49,465.99) scale(4.50)" stroke="#9400D3" stroke-width="2.000" fill="none"/>
  <path d="M-1,-1 L1,1 M1,-1 L-1,1" transform="translate(273.98,453.69) scale(4.50)" stroke="#9400D3" stroke-width="2.000" fill="none"/>
  <path d="M-1,-1 L1,1 M1,-1 L-1,1" transform="translate(269.46,440.47) scale(4.50)" stroke="#9400D3" stroke-width="2.000" fill="none"/>
  <path d="M-1,-1 L1,1 M1,-1 L-1,1" transform="translate(264.95,425.57) scale(4.50)" stroke="#9400D3" stroke-width="2.000" fill="none"/>
  <path d="M-1,-1 L1,1 M1,-1 L-1,1" transform="translate(260.44,408.18) scale(4.50)" stroke="#9400D3" stroke-width="2.000" fill="none"/>
  <path d="M-1,-1 L1,1 M1,-1 L-1,1" transform="translate(255.93,385.80) scale(4.50)" stroke="#9400D3" stroke-width="2.000" fill="none"/>
  <path d="M-1,-1 L1,1 M1,-1 L-1,1" transform="translate(251.42,362.12) scale(4.50)" stroke="#9400D3" stroke-width="2.000" fill="none"/>
  <path d="M-1,-1 L1,1 M1,-1 L-1,1" transform="translate(246.90,355.93) scale(4.50)" stroke="#9400D3" stroke-width="2.000" fill="none"/>
  <path d="M-1,-1 L1,1 M1,-1 L-1,1" transform="translate(242.39,354.74) scale(4.50)" stroke="#9400D3" stroke-width="2.000" fill="none"/>
  <path d="M-1,-1 L1,1 M1,-1 L-1,1" transform="translate(237.88,354.64) scale(4.50)" stroke="#9400D3" stroke-width="2.000" fill="none"/>
  <path d="M-1,-1 L1,1 M1,-1 L-1,1" transform="translate(233.37,354.94) scale(4.50)" stroke="#9400D3" stroke-width="2.000" fill="none"/>
  <path d="M-1,-1 L1,1 M1,-1 L-1,1" transform="translate(228.86,355.40) scale(4.50)" stroke="#9400D3" stroke-width="2.000" fill="none"/>
  <path d="M-1,-1 L1,1 M1,-1 L-1,1" transform="translate(224.34,355.97) scale(4.50)" stroke="#9400D3" stroke-width="2.000" fill="none"/>
  <path d="M-1,-1 L1,1 M1,-1 L-1,1" transform="translate(219.83,356.56) scale(4.50)" stroke="#9400D3" stroke-width="2.000" fill="none"/>
  <path d="M-1,-1 L1,1 M1,-1 L-1,1" transform="translate(215.32,357.20) scale(4.50)" stroke="#9400D3" stroke-width="2.000" fill="none"/>
  <path d="M-1,-1 L1,1 M1,-1 L-1,1" transform="translate(210.81,357.83) scale(4.50)" stroke="#9400D3" stroke-width="2.000" fill="none"/>
  <path d="M-1,-1 L1,1 M1,-1 L-1,1" transform="translate(206.30,358.47) scale(4.50)" stroke="#9400D3" stroke-width="2.000" fill="none"/>
  <path d="M-1,-1 L1,1 M1,-1 L-1,1" transform="translate(201.79,358.95) scale(4.50)" stroke="#9400D3" stroke-width="2.000" fill="none"/>
  <path d="M-1,-1 L1,1 M1,-1 L-1,1" transform="translate(197.27,359.72) scale(4.50)" stroke="#9400D3" stroke-width="2.000" fill="none"/>
  <path d="M-1,-1 L1,1 M1,-1 L-1,1" transform="translate(192.76,360.34) scale(4.50)" stroke="#9400D3" stroke-width="2.000" fill="none"/>
  <path d="M-1,-1 L1,1 M1,-1 L-1,1" transform="translate(170.20,363.09) scale(4.50)" stroke="#9400D3" stroke-width="2.000" fill="none"/>
  <path d="M-1,-1 L1,1 M1,-1 L-1,1" transform="translate(147.64,365.54) scale(4.50)" stroke="#9400D3" stroke-width="2.000" fill="none"/>
  <path d="M-1,-1 L1,1 M1,-1 L-1,1" transform="translate(125.08,367.74) scale(4.50)" stroke="#9400D3" stroke-width="2.000" fill="none"/>
  <path d="M-1,-1 L1,1 M1,-1 L-1,1" transform="translate(102.52,369.64) scale(4.50)" stroke="#9400D3" stroke-width="2.000" fill="none"/>
  <path d="M-1,-1 L1,1 M1,-1 L-1,1" transform="translate(79.96,371.22) scale(4.50)" stroke="#9400D3" stroke-width="2.000" fill="none"/>
  <path d="M-1,-1 L1,1 M1,-1 L-1,1" transform="translate(57.40,372.59) scale(4.50)" stroke="#9400D3" stroke-width="2.000" fill="none"/>
  <path d="M-1,-1 L1,1 M1,-1 L-1,1" transform="translate(12.29,374.77) scale(4.50)" stroke="#9400D3" stroke-width="2.000" fill="none"/>
  <path d="M-1,-1 L1,1 M1,-1 L-1,1" transform="translate(-32.83,376.29) scale(4.50)" stroke="#9400D3" stroke-width="2.000" fill="none"/>
  <path d="M-1,-1 L1,1 M1,-1 L-1,1" transform="translate(-77.95,377.25) scale(4.50)" stroke="#9400D3" stroke-width="2.000" fill="none"/>
  <path d="M-1,-1 L1,1 M1,-1 L-1,1" transform="translate(490.68,434.98) scale(4.50)" stroke="#9400D3" stroke-width="2.000" fill="none"/>
  <path d="M-1,-1 L1,1 M1,-1 L-1,1" transform="translate(486.62,426.54) scale(4.50)" stroke="#9400D3" stroke-width="2.000" fill="none"/>
  <path d="M-1,-1 L1,1 M1,-1 L-1,1" transform="translate(482.11,416.82) scale(4.50)" stroke="#9400D3" stroke-width="2.000" fill="none"/>
  <path d="M-1,-1 L1,1 M1,-1 L-1,1" transform="translate(477.60,406.61) scale(4.50)" stroke="#9400D3" stroke-width="2.000" fill="none"/>
  <path d="M-1,-1 L1,1 M1,-1 L-1,1" transform="translate(473.09,396.03) scale(4.50)" stroke="#9400D3" stroke-width="2.000" fill="none"/>
  <path d="M-1,-1 L1,1 M1,-1 L-1,1" transform="translate(468.57,384.89) scale(4.50)" stroke="#9400D3" stroke-width="2.000" fill="none"/>
  <path d="M-1,-1 L1,1 M1,-1 L-1,1" transform="translate(464.06,373.16) scale(4.50)" stroke="#9400D3" stroke-width="2.000" fill="none"/>
  <path d="M-1,-1 L1,1 M1,-1 L-1,1" transform="translate(459.55,361.00) scale(4.50)" stroke="#9400D3" stroke-width="2.000" fill="none"/>
  <path d="M-1,-1 L1,1 M1,-1 L-1,1" transform="translate(455.04,349.09) scale(4.50)" stroke="#9400D3" stroke-width="2.000" fill="none"/>
  <path d="M-1,-1 L1,1 M1,-1 L-1,1" transform="translate(450.53,338.73) scale(4.50)" stroke="#9400D3" stroke-width="2.000" fill="none"/>
  <path d="M-1,-1 L1,1 M1,-1 L-1,1" transform="translate(446.01,331.49) scale(4.50)" stroke="#9400D3" stroke-width="2.000" fill="none"/>
  <path d="M-1,-1 L1,1 M1,-1 L-1,1" transform="translate(441.50,327.31) scale(4.50)" stroke="#9400D3" stroke-width="2.000" fill="none"/>
  <path d="M-1,-1 L1,1 M1,-1 L-1,1" transform="translate(436.99,324.86) scale(4.50)" stroke="#9400D3" stroke-width="2.000" fill="none"/>
  <path d="M-1,-1 L1,1 M1,-1 L-1,1" transform="translate(432.48,323.46) scale(4.50)" stroke="#9400D3" stroke-width="2.000" fill="none"/>
  <path d="M-1,-1 L1,1 M1,-1 L-1,1" transform="translate(427.97,322.67) scale(4.50)" stroke="#9400D3" stroke-width="2.000" fill="none"/>
  <path d="M-1,-1 L1,1 M1,-1 L-1,1" transform="translate(423.46,322.23) scale(4.50)" stroke="#9400D3" stroke-width="2.000" fill="none"/>
  <path d="M-1,-1 L1,1 M1,-1 L-1,1" transform="translate(418.94,322.02) scale(4.50)" stroke="#9400D3" stroke-width="2.000" fill="none"/>
  <path d="M-1,-1 L1,1 M1,-1 L-1,1" transform="translate(414.43,321.95) scale(4.50)" stroke="#9400D3" stroke-width="2.000" fill="none"/>
  <path d="M-1,-1 L1,1 M1,-1 L-1,1" transform="translate(409.92,321.99) scale(4.50)" stroke="#9400D3" stroke-width="2.000" fill="none"/>
  <path d="M-1,-1 L1,1 M1,-1 L-1,1" transform="translate(405.41,322.08) scale(4.50)" stroke="#9400D3" stroke-width="2.000" fill="none"/>
  <path d="M-1,-1 L1,1 M1,-1 L-1,1" transform="translate(400.90,322.04) scale(4.50)" stroke="#9400D3" stroke-width="2.000" fill="none"/>
  <path d="M-1,-1 L1,1 M1,-1 L-1,1" transform="translate(378.34,323.05) scale(4.50)" stroke="#9400D3" stroke-width="2.000" fill="none"/>
  <path d="M-1,-1 L1,1 M1,-1 L-1,1" transform="translate(355.78,324.03) scale(4.50)" stroke="#9400D3" stroke-width="2.000" fill="none"/>
  <path d="M-1,-1 L1,1 M1,-1 L-1,1" transform="translate(333.22,325.04) scale(4.50)" stroke="#9400D3" stroke-width="2.000" fill="none"/>
  <path d="M-1,-1 L1,1 M1,-1 L-1,1" transform="translate(310.66,325.74) scale(4.50)" stroke="#9400D3" stroke-width="2.000" fill="none"/>
  <path d="M-1,-1 L1,1 M1,-1 L-1,1" transform="translate(288.10,326.31) scale(4.50)" stroke="#9400D3" stroke-width="2.000" fill="none"/>
  <path d="M-1,-1 L1,1 M1,-1 L-1,1" transform="translate(265.54,326.63) scale(4.50)" stroke="#9400D3" stroke-width="2.000" fill="none"/>
  <path d="M-1,-1 L1,1 M1,-1 L-1,1" transform="translate(220.42,326.79) scale(4.50)" stroke="#9400D3" stroke-width="2.000" fill="none"/>
  <path d="M-1,-1 L1,1 M1,-1 L-1,1" transform="translate(175.30,326.34) scale(4.50)" stroke="#9400D3" stroke-width="2.000" fill="none"/>
  <path d="M-1,-1 L1,1 M1,-1 L-1,1" transform="translate(130.18,325.34) scale(4.50)" stroke="#9400D3" stroke-width="2.000" fill="none"/>
  <path d="M-1,-1 L1,1 M1,-1 L-1,1" transform="translate(698.82,393.61) scale(4.50)" stroke="#9400D3" stroke-width="2.000" fill="none"/>
  <path d="M-1,-1 L1,1 M1,-1 L-1,1" transform="translate(694.76,386.51) scale(4.50)" stroke="#9400D3" stroke-width="2.000" fill="none"/>
  <path d="M-1,-1 L1,1 M1,-1 L-1,1" transform="translate(690.24,378.49) scale(4.50)" stroke="#9400D3" stroke-width="2.000" fill="none"/>
  <path d="M-1,-1 L1,1 M1,-1 L-1,1" transform="translate(685.73,370.25) scale(4.50)" stroke="#9400D3" stroke-width="2.000" fill="none"/>
  <path d="M-1,-1 L1,1 M1,-1 L-1,1" transform="translate(681.22,361.91) scale(4.50)" stroke="#9400D3" stroke-width="2.000" fill="none"/>
  <path d="M-1,-1 L1,1 M1,-1 L-1,1" transform="translate(676.71,353.45) scale(4.50)" stroke="#9400D3" stroke-width="2.000" fill="none"/>
  <path d="M-1,-1 L1,1 M1,-1 L-1,1" transform="translate(672.20,344.89) scale(4.50)" stroke="#9400D3" stroke-width="2.000" fill="none"/>
  <path d="M-1,-1 L1,1 M1,-1 L-1,1" transform="translate(667.69,336.34) scale(4.50)" stroke="#9400D3" stroke-width="2.000" fill="none"/>
  <path d="M-1,-1 L1,1 M1,-1 L-1,1" transform="translate(663.17,327.96) scale(4.50)" stroke="#9400D3" stroke-width="2.000" fill="none"/>
  <path d="M-1,-1 L1,1 M1,-1 L-1,1" transform="translate(658.66,319.97) scale(4.50)" stroke="#9400D3" stroke-width="2.000" fill="none"/>
  <path d="M-1,-1 L1,1 M1,-1 L-1,1" transform="translate(654.15,312.63) scale(4.50)" stroke="#9400D3" stroke-width="2.000" fill="none"/>
  <path d="M-1,-1 L1,1 M1,-1 L-1,1" transform="translate(649.64,306.38) scale(4.50)" stroke="#9400D3" stroke-width="2.000" fill="none"/>
  <path d="M-1,-1 L1,1 M1,-1 L-1,1" transform="translate(645.13,301.27) scale(4.50)" stroke="#9400D3" stroke-width="2.000" fill="none"/>
  <path d="M-1,-1 L1,1 M1,-1 L-1,1" transform="translate(640.61,297.24) scale(4.50)" stroke="#9400D3" stroke-width="2.000" fill="none"/>
  <path d="M-1,-1 L1,1 M1,-1 L-1,1" transform="translate(636.10,294.18) scale(4.50)" stroke="#9400D3" stroke-width="2.000" fill="none"/>
  <path d="M-1,-1 L1,1 M1,-1 L-1,1" transform="translate(631.59,292.05) scale(4.50)" stroke="#9400D3" stroke-width="2.000" fill="none"/>
  <path d="M-1,-1 L1,1 M1,-1 L-1,1" transform="translate(627.08,290.36) scale(4.50)" stroke="#9400D3" stroke-width="2.000" fill="none"/>
  <path d="M-1,-1 L1,1 M1,-1 L-1,1" transform="translate(622.57,289.09) scale(4.50)" stroke="#9400D3" stroke-width="2.000" fill="none"/>
  <path d="M-1,-1 L1,1 M1,-1 L-1,1" transform="translate(618.05,288.12) scale(4.50)" stroke="#9400D3" stroke-width="2.000" fill="none"/>
  <path d="M-1,-1 L1,1 M1,-1 L-1,1" transform="translate(613.54,287.36) scale(4.50)" stroke="#9400D3" stroke-width="2.000" fill="none"/>
  <path d="M-1,-1 L1,1 M1,-1 L-1,1" transform="translate(609.03,286.78) scale(4.50)" stroke="#9400D3" stroke-width="2.000" fill="none"/>
  <path d="M-1,-1 L1,1 M1,-1 L-1,1" transform="translate(586.47,285.22) scale(4.50)" stroke="#9400D3" stroke-width="2.000" fill="none"/>
  <path d="M-1,-1 L1,1 M1,-1 L-1,1" transform="translate(563.91,284.56) scale(4.50)" stroke="#9400D3" stroke-width="2.000" fill="none"/>
  <path d="M-1,-1 L1,1 M1,-1 L-1,1" transform="translate(541.35,284.06) scale(4.50)" stroke="#9400D3" stroke-width="2.000" fill="none"/>
  <path d="M-1,-1 L1,1 M1,-1 L-1,1" transform="translate(518.79,283.52) scale(4.50)" stroke="#9400D3" stroke-width="2.000" fill="none"/>
  <path d="M-1,-1 L1,1 M1,-1 L-1,1" transform="translate(496.23,282.92) scale(4.50)" stroke="#9400D3" stroke-width="2.000" fill="none"/>
  <path d="M-1,-1 L1,1 M1,-1 L-1,1" transform="translate(473.67,282.24) scale(4.50)" stroke="#9400D3" stroke-width="2.000" fill="none"/>
  <path d="M-1,-1 L1,1 M1,-1 L-1,1" transform="translate(428.56,280.58) scale(4.50)" stroke="#9400D3" stroke-width="2.000" fill="none"/>
  <path d="M-1,-1 L1,1 M1,-1 L-1,1" transform="translate(383.44,278.48) scale(4.50)" stroke="#9400D3" stroke-width="2.000" fill="none"/>
  <path d="M-1,-1 L1,1 M1,-1 L-1,1" transform="translate(906.95,352.20) scale(4.50)" stroke="#9400D3" stroke-width="2.000" fill="none"/>
  <path d="M-1,-1 L1,1 M1,-1 L-1,1" transform="translate(902.89,346.08) scale(4.50)" stroke="#9400D3" stroke-width="2.000" fill="none"/>
  <path d="M-1,-1 L1,1 M1,-1 L-1,1" transform="translate(898.38,339.26) scale(4.50)" stroke="#9400D3" stroke-width="2.000" fill="none"/>
  <path d="M-1,-1 L1,1 M1,-1 L-1,1" transform="translate(893.87,332.39) scale(4.50)" stroke="#9400D3" stroke-width="2.000" fill="none"/>
  <path d="M-1,-1 L1,1 M1,-1 L-1,1" transform="translate(889.36,325.50) scale(4.50)" stroke="#9400D3" stroke-width="2.000" fill="none"/>
  <path d="M-1,-1 L1,1 M1,-1 L-1,1" transform="translate(884.84,318.60) scale(4.50)" stroke="#9400D3" stroke-width="2.000" fill="none"/>
  <path d="M-1,-1 L1,1 M1,-1 L-1,1" transform="translate(880.33,311.75) scale(4.50)" stroke="#9400D3" stroke-width="2.000" fill="none"/>
  <path d="M-1,-1 L1,1 M1,-1 L-1,1" transform="translate(875.82,304.99) scale(4.50)" stroke="#9400D3" stroke-width="2.000" fill="none"/>
  <path d="M-1,-1 L1,1 M1,-1 L-1,1" transform="translate(871.31,298.37) scale(4.50)" stroke="#9400D3" stroke-width="2.000" fill="none"/>
  <path d="M-1,-1 L1,1 M1,-1 L-1,1" transform="translate(866.80,291.99) scale(4.50)" stroke="#9400D3" stroke-width="2.000" fill="none"/>
  <path d="M-1,-1 L1,1 M1,-1 L-1,1" transform="translate(862.28,285.94) scale(4.50)" stroke="#9400D3" stroke-width="2.000" fill="none"/>
  <path d="M-1,-1 L1,1 M1,-1 L-1,1" transform="translate(857.77,280.41) scale(4.50)" stroke="#9400D3" stroke-width="2.000" fill="none"/>
  <path d="M-1,-1 L1,1 M1,-1 L-1,1" transform="translate(853.26,275.35) scale(4.50)" stroke="#9400D3" stroke-width="2.000" fill="none"/>
  <path d="M-1,-1 L1,1 M1,-1 L-1,1" transform="translate(848.75,270.90) scale(4.50)" stroke="#9400D3" stroke-width="2.000" fill="none"/>
  <path d="M-1,-1 L1,1 M1,-1 L-1,1" transform="translate(844.24,267.02) scale(4.50)" stroke="#9400D3" stroke-width="2.000" fill="none"/>
  <path d="M-1,-1 L1,1 M1,-1 L-1,1" transform="translate(839.72,263.68) scale(4.50)" stroke="#9400D3" stroke-width="2.000" fill="none"/>
  <path d="M-1,-1 L1,1 M1,-1 L-1,1" transform="translate(835.21,260.82) scale(4.50)" stroke="#9400D3" stroke-width="2.000" fill="none"/>
  <path d="M-1,-1 L1,1 M1,-1 L-1,1" transform="translate(830.70,258.44) scale(4.50)" stroke="#9400D3" stroke-width="2.000" fill="none"/>
  <path d="M-1,-1 L1,1 M1,-1 L-1,1" transform="translate(826.19,256.46) scale(4.50)" stroke="#9400D3" stroke-width="2.000" fill="none"/>
  <path d="M-1,-1 L1,1 M1,-1 L-1,1" transform="translate(821.68,254.83) scale(4.50)" stroke="#9400D3" stroke-width="2.000" fill="none"/>
  <path d="M-1,-1 L1,1 M1,-1 L-1,1" transform="translate(817.17,253.41) scale(4.50)" stroke="#9400D3" stroke-width="2.000" fill="none"/>
  <path d="M-1,-1 L1,1 M1,-1 L-1,1" transform="translate(794.61,248.76) scale(4.50)" stroke="#9400D3" stroke-width="2.000" fill="none"/>
  <path d="M-1,-1 L1,1 M1,-1 L-1,1" transform="translate(772.05,246.07) scale(4.50)" stroke="#9400D3" stroke-width="2.000" fill="none"/>
  <path d="M-1,-1 L1,1 M1,-1 L-1,1" transform="translate(749.49,244.19) scale(4.50)" stroke="#9400D3" stroke-width="2.000" fill="none"/>
  <path d="M-1,-1 L1,1 M1,-1 L-1,1" transform="translate(726.93,242.56) scale(4.50)" stroke="#9400D3" stroke-width="2.000" fill="none"/>
  <path d="M-1,-1 L1,1 M1,-1 L-1,1" transform="translate(704.37,240.97) scale(4.50)" stroke="#9400D3" stroke-width="2.000" fill="none"/>
</g>
  <text x="159" y="83" font-family="Arial" font-size="12" alignment-baseline="middle" text-anchor="end">&quot;scatter2.dat&quot;</text>
  <line x1="169" y1="80" x2="194" y2="80" stroke="#9400D3" stroke-width="2"/>
  <path d="M 54.00 66.00 L 775.00 66.00 L 775.00 564.00 L 54.00 564.00 Z" stroke="#000000" stroke-width="1.0" fill="none"/>
</svg>
